<?xml version="1.0" encoding="UTF-8"?>
<svg id="Layer_1" data-name="Layer 1" xmlns="http://www.w3.org/2000/svg" xmlns:xlink="http://www.w3.org/1999/xlink" viewBox="0 0 311.48 140.54">
  <defs>
    <style>
      .cls-1 {
        fill: url(#linear-gradient-5);
      }

      .cls-2 {
        fill: url(#linear-gradient-4);
      }

      .cls-3 {
        fill: url(#linear-gradient-3);
      }

      .cls-4 {
        fill: url(#linear-gradient-2);
      }

      .cls-5 {
        fill: url(#linear-gradient);
      }
    </style>
    <linearGradient id="linear-gradient" x1="144.92" y1="128.38" x2="144.92" y2=".01" gradientUnits="userSpaceOnUse">
      <stop offset="0" stop-color="#2484c6"/>
      <stop offset=".52" stop-color="#98c5e4" stop-opacity=".95"/>
      <stop offset="1" stop-color="#fff" stop-opacity=".9"/>
    </linearGradient>
    <linearGradient id="linear-gradient-2" x1="71.45" y1="140.52" x2="71.45" y2="48.17" gradientUnits="userSpaceOnUse">
      <stop offset="0" stop-color="#2484c6"/>
      <stop offset=".1" stop-color="#2d89c8" stop-opacity="1"/>
      <stop offset=".26" stop-color="#4697cf" stop-opacity=".99"/>
      <stop offset=".46" stop-color="#70aed9" stop-opacity=".98"/>
      <stop offset=".7" stop-color="#a9cfe8" stop-opacity=".97"/>
      <stop offset=".96" stop-color="#f2f8fb" stop-opacity=".95"/>
      <stop offset="1" stop-color="#fff" stop-opacity=".95"/>
    </linearGradient>
    <linearGradient id="linear-gradient-3" x1="227.98" y1="140.52" x2="227.98" y2="48.09" gradientUnits="userSpaceOnUse">
      <stop offset="0" stop-color="#2484c6"/>
      <stop offset=".13" stop-color="#358eca" stop-opacity=".98"/>
      <stop offset=".37" stop-color="#64a8d6" stop-opacity=".94"/>
      <stop offset=".69" stop-color="#b0d2ea" stop-opacity=".87"/>
      <stop offset="1" stop-color="#fff" stop-opacity=".8"/>
    </linearGradient>
    <linearGradient id="linear-gradient-4" x1="1239.07" y1="140.52" x2="1239.07" y2="98.25" gradientTransform="translate(1367.21) rotate(-180) scale(1 -1)" gradientUnits="userSpaceOnUse">
      <stop offset="0" stop-color="#2484c6"/>
      <stop offset=".23" stop-color="#2886c7" stop-opacity=".99"/>
      <stop offset=".39" stop-color="#368eca" stop-opacity=".97"/>
      <stop offset=".54" stop-color="#4f9cd1" stop-opacity=".94"/>
      <stop offset=".67" stop-color="#71afda" stop-opacity=".89"/>
      <stop offset=".8" stop-color="#9ec8e5" stop-opacity=".83"/>
      <stop offset=".92" stop-color="#d4e6f3" stop-opacity=".76"/>
      <stop offset="1" stop-color="#fff" stop-opacity=".7"/>
    </linearGradient>
    <linearGradient id="linear-gradient-5" x1="1125.55" y1="140.52" x2="1125.55" y2="92.19" xlink:href="#linear-gradient-4"/>
  </defs>
  <path class="cls-5" d="M210.35,54.53C205.41,23.67,177.12.01,142.96.01,105.32.01,74.8,28.74,74.8,64.18c0,4.74.56,9.36,1.6,13.81-11.46,3.22-19.8,13.03-19.8,24.63,0,14.23,12.53,25.76,28,25.76l64.12-.03-.23-.23c7.46-.56,14.58-2.27,21.17-4.91,6.21,3.27,13.4,5.14,21.07,5.14,23.48,0,42.52-17.51,42.52-39.12,0-15.09-9.29-28.17-22.89-34.7Z"/>
  <path class="cls-4" d="M124.49,104.72c-.56,0-1.1.03-1.65.07-.73-10.24-6.39-19.21-14.77-24.88-5.53-18.37-22.56-31.75-42.73-31.75-24.64,0-44.62,19.98-44.62,44.62,0,5.33.94,10.44,2.65,15.18-3.19,2.18-5.63,5.31-6.89,8.97-1.26-.42-2.61-.65-4.01-.65-6.89,0-12.47,5.42-12.47,12.12s5.05,11.57,11.47,12.07l-.03.05h113.04c10.17,0,18.42-8.01,18.42-17.9s-8.25-17.9-18.42-17.9Z"/>
  <path class="cls-3" d="M267.64,58.57c-6.32,0-12.32,1.26-17.75,3.51-7.77-8.6-18.86-13.99-31.17-13.99-23.51,0-42.57,19.63-42.57,43.84,0,.5.02,1,.04,1.5-.83-.09-1.66-.14-2.51-.14-12.67,0-22.94,10.58-22.94,23.62,0,1.59.15,3.13.44,4.63-3.9,1.27-6.72,4.93-6.72,9.25,0,5.38,4.36,9.73,9.73,9.73h113.43c24.21,0,43.84-18.35,43.84-40.98s-19.63-40.98-43.84-40.98Z"/>
  <path class="cls-2" d="M111.43,103.04c2.89,0,5.64.58,8.12,1.61,3.55-3.94,8.62-6.4,14.25-6.4,10.75,0,19.47,8.98,19.47,20.05,0,.23,0,.46-.02.69.38-.04.76-.07,1.15-.07,5.79,0,10.49,4.84,10.49,10.8s-4.7,10.8-10.49,10.8h-42.97c-11.07,0-20.05-8.39-20.05-18.74s8.98-18.74,20.05-18.74Z"/>
  <path class="cls-1" d="M222.56,97.67c3.3,0,6.44.66,9.28,1.84,4.06-4.5,9.86-7.32,16.3-7.32,12.29,0,22.26,10.26,22.26,22.92,0,.26-.01.52-.02.79.43-.05.87-.08,1.31-.08,6.62,0,11.99,5.53,11.99,12.35,0,6.82-5.37,12.35-11.99,12.35h-49.13c-12.66,0-22.92-9.59-22.92-21.43,0-11.83,10.26-21.43,22.92-21.43Z"/>
</svg>