<?xml version="1.0" encoding="UTF-8"?>
<svg id="Layer_1" data-name="Layer 1" xmlns="http://www.w3.org/2000/svg" xmlns:xlink="http://www.w3.org/1999/xlink" viewBox="0 0 304.68 137.36">
  <defs>
    <style>
      .cls-1 {
        fill: url(#linear-gradient-5);
      }

      .cls-2 {
        fill: url(#linear-gradient-6);
      }

      .cls-3 {
        fill: url(#linear-gradient-4);
      }

      .cls-4 {
        fill: url(#linear-gradient-3);
      }

      .cls-5 {
        fill: url(#linear-gradient-2);
      }

      .cls-6 {
        fill: url(#linear-gradient);
      }
    </style>
    <linearGradient id="linear-gradient" x1="145.82" y1="128.36" x2="145.82" y2="0" gradientUnits="userSpaceOnUse">
      <stop offset="0" stop-color="#2484c6"/>
      <stop offset=".52" stop-color="#98c5e4" stop-opacity=".95"/>
      <stop offset="1" stop-color="#fff" stop-opacity=".9"/>
    </linearGradient>
    <linearGradient id="linear-gradient-2" x1="211.53" y1="137.36" x2="211.53" y2="45.01" gradientUnits="userSpaceOnUse">
      <stop offset="0" stop-color="#2484c6"/>
      <stop offset=".1" stop-color="#2d89c8" stop-opacity="1"/>
      <stop offset=".26" stop-color="#4697cf" stop-opacity=".99"/>
      <stop offset=".46" stop-color="#70aed9" stop-opacity=".98"/>
      <stop offset=".7" stop-color="#a9cfe8" stop-opacity=".97"/>
      <stop offset=".96" stop-color="#f2f8fb" stop-opacity=".95"/>
      <stop offset="1" stop-color="#fff" stop-opacity=".95"/>
    </linearGradient>
    <linearGradient id="linear-gradient-3" x1="87.82" y1="137.36" x2="87.82" y2="82.98" gradientTransform="translate(345.22) rotate(-180) scale(1 -1)" gradientUnits="userSpaceOnUse">
      <stop offset="0" stop-color="#2484c6"/>
      <stop offset=".23" stop-color="#2886c7" stop-opacity=".99"/>
      <stop offset=".39" stop-color="#368eca" stop-opacity=".97"/>
      <stop offset=".54" stop-color="#4f9cd1" stop-opacity=".94"/>
      <stop offset=".67" stop-color="#71afda" stop-opacity=".89"/>
      <stop offset=".8" stop-color="#9ec8e5" stop-opacity=".83"/>
      <stop offset=".92" stop-color="#d4e6f3" stop-opacity=".76"/>
      <stop offset="1" stop-color="#fff" stop-opacity=".7"/>
    </linearGradient>
    <linearGradient id="linear-gradient-4" x1="107.71" y1="137.36" x2="107.71" y2="44.93" gradientUnits="userSpaceOnUse">
      <stop offset="0" stop-color="#2484c6"/>
      <stop offset=".13" stop-color="#358eca" stop-opacity=".98"/>
      <stop offset=".37" stop-color="#64a8d6" stop-opacity=".94"/>
      <stop offset=".69" stop-color="#b0d2ea" stop-opacity=".87"/>
      <stop offset="1" stop-color="#fff" stop-opacity=".8"/>
    </linearGradient>
    <linearGradient id="linear-gradient-5" x1="297.94" y1="137.36" x2="297.94" y2="82.98" xlink:href="#linear-gradient-3"/>
    <linearGradient id="linear-gradient-6" x1="153.99" y1="137.36" x2="153.99" y2="103" xlink:href="#linear-gradient-3"/>
  </defs>
  <path class="cls-6" d="M206.02,54.51C201.47,23.66,175.44,0,144.01,0c-34.63,0-62.71,28.73-62.71,64.17,0,4.74.52,9.36,1.47,13.81-10.55,3.22-18.22,13.03-18.22,24.63,0,14.23,11.53,25.76,25.76,25.76l59-.03-.21-.23c6.86-.56,13.41-2.27,19.47-4.91,5.71,3.27,12.33,5.14,19.38,5.14,21.61,0,39.12-17.51,39.12-39.12,0-15.09-8.55-28.17-21.06-34.7Z"/>
  <path class="cls-5" d="M264.57,101.56c-.56,0-1.1.03-1.65.07-.73-10.24-6.39-19.21-14.77-24.88-5.53-18.37-22.56-31.75-42.73-31.75-24.64,0-44.62,19.98-44.62,44.62,0,5.33.94,10.44,2.65,15.18-3.19,2.18-5.63,5.31-6.89,8.97-1.26-.42-2.61-.65-4.01-.65-6.89,0-12.47,5.42-12.47,12.12s5.05,11.57,11.47,12.07l-.03.05h113.04c10.17,0,18.42-8.01,18.42-17.9s-8.25-17.9-18.42-17.9Z"/>
  <path class="cls-4" d="M235.91,89.15c3.72,0,7.25.74,10.44,2.07,4.57-5.06,11.09-8.23,18.33-8.23,13.83,0,25.04,11.55,25.04,25.79,0,.3-.01.59-.02.89.49-.05.98-.08,1.48-.08,7.45,0,13.49,6.22,13.49,13.9s-6.04,13.9-13.49,13.9h-55.27c-14.24,0-25.79-10.79-25.79-24.11s11.55-24.11,25.79-24.11Z"/>
  <path class="cls-3" d="M147.37,55.41c-6.32,0-12.32,1.26-17.75,3.51-7.77-8.6-18.86-13.99-31.17-13.99-23.51,0-42.57,19.63-42.57,43.84,0,.5.02,1,.04,1.5-.83-.09-1.66-.14-2.51-.14-12.67,0-22.94,10.58-22.94,23.62,0,1.59.15,3.13.44,4.63-3.9,1.27-6.72,4.93-6.72,9.25,0,5.38,4.36,9.73,9.73,9.73h113.43c24.21,0,43.84-18.35,43.84-40.98s-19.63-40.98-43.84-40.98Z"/>
  <path class="cls-1" d="M25.79,89.15c3.72,0,7.25.74,10.44,2.07,4.57-5.06,11.09-8.23,18.33-8.23,13.83,0,25.04,11.55,25.04,25.79,0,.3-.01.59-.02.89.49-.05.98-.08,1.48-.08,7.45,0,13.49,6.22,13.49,13.9s-6.04,13.9-13.49,13.9H25.79c-14.24,0-25.79-10.79-25.79-24.11s11.55-24.11,25.79-24.11Z"/>
  <path class="cls-2" d="M177.65,106.89c2.35,0,4.58.47,6.6,1.31,2.89-3.2,7.01-5.2,11.59-5.2,8.74,0,15.82,7.3,15.82,16.3,0,.19,0,.37-.01.56.31-.03.62-.05.93-.05,4.71,0,8.53,3.93,8.53,8.78s-3.82,8.78-8.53,8.78h-34.93c-9,0-16.3-6.82-16.3-15.23s7.3-15.23,16.3-15.23Z"/>
</svg>