<?xml version="1.0" encoding="UTF-8"?>
<svg id="Layer_1" xmlns="http://www.w3.org/2000/svg" version="1.1" viewBox="0 0 1280 1280">
  <!-- Generator: Adobe Illustrator 30.3.0, SVG Export Plug-In . SVG Version: 2.1.3 Build 182)  -->
  <defs>
    <style>
      .st0 {
        fill: #3b4fa0;
      }

      .st1 {
        fill: #f99d1c;
      }

      .st2 {
        fill: #fff;
      }

      .st3 {
        fill: #052135;
      }

      .st4 {
        fill: #eb1459;
      }

      .st5 {
        fill: #652d8f;
      }

      .globe-eye-blink {
        transform-box: view-box;
        animation: globe-eye-blink 3s ease-in-out infinite;
      }

      @keyframes globe-eye-blink {
        0%,
        90%,
        100% {
          transform: translate(641.4px, 641.3px) scaleY(1) translate(-641.4px, -641.3px);
        }

        92%,
        96% {
          transform: translate(641.4px, 641.3px) scaleY(0.04) translate(-641.4px, -641.3px);
        }
      }

      @media (prefers-reduced-motion: reduce) {
        .globe-eye-blink {
          animation: none;
        }
      }
    </style>
  </defs>
  <circle class="st3" cx="641.4" cy="641.3" r="631.9"/>
  <g>
    <g>
      <path class="st2" d="M1124.5,281c-38.2-40.3-82.2-75.5-129.9-104.3,0,0-.1-.2-.3-.2-4-2.4-7.9-4.7-11.9-7-.1,0-.3-.1-.4-.2-5.3-3.1-10.8-6-16.2-8.9-5.5-2.9-11-5.8-16.6-8.6-5.6-2.8-11.2-5.5-16.8-8.1-5.2-2.4-10.5-4.8-15.8-7-.8-.4-1.7-.7-2.5-1.1-4.5-2-9.1-3.8-13.7-5.6-7.4-2.9-14.8-5.7-22.3-8.3-4.6-1.6-9.3-3.2-14-4.7-.9-.3-1.7-.5-2.6-.8-5.4-1.7-10.8-3.4-16.2-4.9-1.3-.4-2.8-.8-4.1-1.2-1.3-.4-2.7-.8-4-1.2,0,0-.2,0-.2,0-2.7-.8-5.4-1.6-8.1-2.3-36.4-10.4-73.5-17.5-110.8-21.5-1.8-.2-3.7-.4-5.5-.5-14.5-1.5-28.9-2.4-43.3-2.9-25.1-.9-50.1-.5-75,1.3-14,1-28,2.4-41.9,4.2-1.8.2-3.7.5-5.4.7-37.4,5.2-74.2,13.3-110,24.2-2.7.8-5.4,1.6-8,2.5-.2,0-.4.2-.6.2-6.2,1.9-12.3,4-18.4,6.1-5.9,2-11.7,4.1-17.6,6.3-.4.2-.8.3-1.2.5-12.5,4.7-24.7,9.8-36.9,15.3-9.1,4-18,8.2-26.9,12.8-3,1.5-5.9,2.9-8.8,4.5-2.9,1.5-5.9,3.1-8.8,4.6-2.9,1.5-5.8,3.1-8.7,4.7-5.7,3.1-11.3,6.4-16.9,9.7h-.1c0,0-.1.2-.1.2-3.8,2.2-7.5,4.5-11.2,6.9-95.7,59.8-173.9,143.3-220.1,246.1-16.8,37.2-29.4,77-36.9,119.1-5,27.1-7.9,55.2-8.5,84.2,0,0,0,0,0,.1-.2,4.9-.3,9.9-.2,14.8,0,.6,0,1.2,0,1.8,0,5.6.2,11.2.4,16.9.2,4.7.6,9.3.9,13.9.2,2.3.4,4.4.6,6.7,2.1,21.6,5.5,42.7,10.1,63.2,0,.3.1.6.2.9,0,0,0,.1,0,.3,5.1,22.4,11.7,44.1,19.7,65.2,25.8,68.6,66.1,129.9,116.3,182.2v.2c3.2,3.2,6.3,6.3,9.4,9.4,3.1,3.1,6.4,6.2,9.6,9.3,3.2,3.1,6.5,6.2,9.8,9.1,16.4,15,33.7,29.1,51.8,42.3.7.6,1.6,1.1,2.3,1.7,2.9,2.1,5.9,4.2,8.9,6.3,11,7.7,22.3,15.2,33.9,22.2,3.8,2.4,7.7,4.7,11.6,7h0c0,.1.1.1.3.2,1,.6,2,1.3,3.2,1.8,0,0,0,.1.2.1,41.9,24.1,86.7,43.8,133.1,58.6,3.3,1.1,6.6,2.1,9.9,3.1,3.2,1,6.5,2,9.7,2.8q0,0,.1,0c0,0,0,0,.1,0,.5.1,1,.3,1.4.4,38.1,10.8,77.1,18.3,116.3,22.4.2,0,.3,0,.5,0h0s0,0,0,0c3.7.3,7.4.7,11,1,4.7.4,9.5.7,14.1,1,2.8.2,5.6.4,8.4.5,1.4,0,2.8.2,4.2.1,4.2.2,8.4.4,12.6.4,4.1.1,8.3.2,12.4.2,0,0,.1,0,.2,0,4.2,0,8.4,0,12.6-.1,4.1,0,8.1-.1,12.2-.3,4.3-.2,8.6-.4,13-.6,2.5,0,5.1-.2,7.7-.3,0,0,0,0,0,0,3.8,0,7.6-.2,11.3-.5,4.3-.2,8.6-.5,12.8-.8,10.6-.7,21.3-1.8,31.8-3.2.2,0,.4,0,.5,0,39.2-4.9,77.8-13.5,115.4-25.3.4-.2.9-.3,1.3-.5h0c34.3-10.9,67.7-24.5,99.7-40.7,6.4-3.1,12.8-6.4,19-9.9,12.5-6.7,24.8-13.9,36.7-21.5,0,0,0,0,.1,0,.8-.5,1.7-1.1,2.6-1.6l.2-.2c5.8-3.7,11.6-7.5,17.3-11.4,8.5-5.8,16.9-11.8,25.1-18.1,2.7-2,5.5-4.1,8.1-6.3,54.1-42.2,100.8-92.6,136.7-149.9,5.4-8.6,10.5-17.3,15.4-26.1,10.6-19.4,20.1-39.4,28.2-60.1,3.1-7.8,6-15.6,8.6-23.6,1.1-3.4,2.2-6.7,3.3-10.1,0,0,0-.2,0-.2,2-6.3,3.9-12.8,5.6-19.2,2.7-9.9,5-20,7.1-30.2,3.1-15.2,5.5-30.7,7.1-46.5,1.1-10.5,1.9-21.1,2.3-31.9.2-5.1.3-10.3.4-15.5-.6,47.1-7.7,92.3-20.5,135.1-38.2,128.8-127.4,236.2-241.1,309.6-.9.7-1.9,1.3-3,2h0c-48.4,30.9-101.2,55.6-156.4,73.3-.5.2-.9.3-1.4.4-38,12.1-77.2,20.8-116.8,25.8-.2,0-.4.1-.5,0-5.4.7-10.8,1.3-16.2,1.8-5.4.6-10.8,1.1-16.2,1.4-4.8.4-9.6.7-14.5.9-3.4.2-6.9.4-10.3.4-2.6.1-5.2.2-7.8.3-22.3,1.2-44.7,1.2-67.1,0-3.2-.2-6.4-.3-9.5-.6-8.5-.5-17-1.3-25.6-2.3h0c-.2,0-.3,0-.5,0-40.2-4.3-80.1-12.4-119-23.8-.5-.1-1-.3-1.4-.5,0,0,0,0,0,0h0c-.4-.2-.7-.3-1.1-.4-6.4-1.9-12.9-3.9-19.3-6.1-13.7-4.5-27.1-9.4-40.4-14.8-3.3-1.3-6.7-2.7-9.9-4.1-16.5-6.9-32.8-14.5-48.6-22.8-5.9-3-11.8-6.2-17.6-9.5-1.1-.6-2.2-1.2-3.3-1.8-5.6-3.1-11.2-6.4-16.7-9.7-1.2-.7-2.4-1.5-3.6-2.2-130.6-79.7-231-203.5-262.4-356.3,0-.2,0-.5-.1-.7-.1-.6-.3-1.3-.4-2-2.9-14.5-5.2-29.4-6.8-44.5-.3-2.1-.5-4.2-.7-6.3-.1-.8-.2-1.6-.2-2.4-.2-1.2-.3-2.4-.3-3.7-.1-.7-.2-1.4-.2-2.2-.2-2-.3-4-.4-6.1-.2-2.3-.3-4.7-.4-7-.1-3.5-.2-6.9-.2-10.4,0-.8,0-1.6,0-2.4,0-2.2,0-4.3,0-6.3,0-2.2,0-4.3,0-6.5,0-1.6,0-3.2,0-4.7,0-4,.2-8,.4-12,1-31.6,4.9-62.2,11.2-91.6,0,0,0-.1,0-.2,0-.2,0-.3,0-.4,1.5-7.2,3.2-14.4,5.1-21.5.7-2.6,1.4-5.3,2.1-7.8,0-.1,0-.3.1-.4.8-3.4,1.8-6.7,2.9-10,1.4-4.9,2.9-9.7,4.5-14.6h0c1.5-4.4,2.9-8.8,4.5-13.1,5.6-15.5,12-30.6,19.1-45.4,1.8-3.8,3.6-7.5,5.4-11.1,2.1-4.1,4.2-8.2,6.4-12.2,2.6-4.8,5.3-9.5,8.1-14.2,2.4-4.1,4.8-8.2,7.3-12.2,2.8-4.6,5.8-9.1,8.7-13.6,2.6-3.9,5.2-7.6,7.9-11.4,2.9-4.1,5.7-8.1,8.7-12,2.5-3.3,5.1-6.7,7.6-10,1-1.3,2.1-2.6,3.1-4,2.5-3.1,5-6.2,7.6-9.3,2.8-3.4,5.7-6.7,8.6-10.1.6-.7,1.1-1.3,1.7-1.9,2.9-3.4,6-6.7,9.1-10,2.3-2.5,4.6-4.9,6.9-7.3,1.8-1.9,3.6-3.8,5.5-5.7,1.4-1.4,2.9-2.9,4.3-4.3,1.5-1.5,3.1-3.1,4.6-4.6.8-.8,1.6-1.6,2.5-2.3,2.6-2.5,5.2-5.1,8-7.5,3.6-3.4,7.3-6.7,11.1-10,3.7-3.2,7.4-6.5,11.2-9.6h0c4.5-3.8,9.1-7.5,13.8-11.2l.6-.5c4.7-3.7,9.5-7.3,14.3-10.8,4.5-3.3,9-6.5,13.5-9.8,1.3-.9,2.6-1.7,3.9-2.6,3.9-2.7,7.9-5.4,11.9-8,.3-.1.5-.3.8-.5h0c3.6-2.4,7.2-4.7,10.9-7,46.1-28.7,96.1-51.9,148.7-69.1,2.6-.8,5.2-1.7,7.9-2.5h0c9.1-3,18.3-5.6,27.6-8.1,4.6-1.3,9.3-2.5,13.9-3.6.2,0,.4-.1.7-.2,23.1-5.7,46.5-10.3,70.2-13.6,1.8-.3,3.6-.6,5.4-.8h0c.3,0,.6-.1,1-.2,5.8-.8,11.6-1.5,17.4-2.1.6,0,1.2-.1,1.8-.2,6.5-.7,12.9-1.3,19.4-1.8.3,0,.6,0,.9,0,1-.1,1.9-.2,2.9-.2h0c5.8-.4,11.6-.8,17.5-1.1,6.8-.4,13.6-.6,20.4-.7,12.3-.3,24.7-.2,37.1.3,1.3,0,2.5,0,3.8.1.9,0,1.9,0,2.8.1,5.8.2,11.7.5,17.6,1,6.8.4,13.6,1,20.4,1.7,1.8.2,3.6.3,5.4.5,37.9,4.1,75.4,11.3,112.3,21.9,2.7.8,5.4,1.6,8.2,2.4,1.7.5,3.3,1,4.9,1.5,5.7,1.6,11.3,3.3,16.9,5.1.7.2,1.3.4,1.9.6,5.4,1.7,10.8,3.5,16.2,5.4,1.3.5,2.6,1,3.9,1.4,5.2,1.8,10.3,3.8,15.4,5.8h0c6,2.3,11.8,4.7,17.7,7.3,4.7,2,9.4,4.1,14.1,6.3,0,0,.2,0,.3.1,2.6,1.2,5.2,2.4,7.8,3.7,4.3,2,8.5,4,12.7,6.1,5.7,2.9,11.4,5.9,16.9,8.9,4.6,2.5,9.1,5,13.6,7.6,1.1.6,2.2,1.2,3.3,1.9h0c.2.1.2.2.3.3,4,2.3,7.9,4.6,11.7,7,135.1,82.6,239.7,216.1,267.7,372.1,2.5,14.1,4.4,28.3,5.6,42.6-1.2-15.7-3.3-31-6.1-46.3,0,0,0-.1,0-.1-1-5.1-2-10.2-3.1-15.2-5.7-26.1-13.5-51.6-23.3-76.2-1.7-4.4-3.5-8.8-5.4-13.2-.8-1.8-1.6-3.7-2.4-5.5-5.1-11.8-10.8-23.3-16.9-34.6-23.9-44.7-54.3-86.1-89.5-123.1ZM1271.4,596.3c0-.3,0-.6,0-.9h0c0,.3,0,.6,0,.9h0ZM1271.4,596.8c0,0,0,.1,0,.2,0,.2,0,.5,0,.8.5,5.3.8,10.5,1.1,15.9-.3-5.4-.6-10.7-1-16,0-.2,0-.5,0-.7,0,0,0-.2,0-.2,0,0,0-.2,0-.3q0,0,0-.2c0,0,0,.1,0,.1,0,.1,0,.3,0,.4Z"/>
      <path class="st2" d="M1268,584.4c-.4-2.4-.8-4.8-1.3-7.2.5,2.4.9,4.8,1.3,7.2ZM1269.5,593.2c0-.2,0-.3,0-.4-.4-2.8-1-5.5-1.5-8.3.5,2.9,1,5.8,1.5,8.7ZM1085.1,306.3c-2.8-2.1-5.6-4-8.4-6,0,0-.2-.1-.3-.1h0c-9.1-6.4-18.5-12.5-28-18.4-3.2-2-6.4-3.9-9.6-5.8-3.9-2.3-7.8-4.5-11.6-6.7-2.6-1.5-5.2-2.9-7.7-4.3-3.4-1.9-6.9-3.7-10.3-5.5-3.1-1.6-6.2-3.2-9.3-4.9-17.2-8.6-34.7-16.6-52.6-23.9-3.5-1.4-7.1-2.9-10.6-4.2-7.1-2.8-14.2-5.4-21.4-8h0c0,0,0,0,0,0-1.8-.7-3.7-1.3-5.5-1.9-50.1-17.4-102.2-29.7-153.9-37-1.6-.2-3.1-.4-4.7-.6-3.8-.5-7.6-1-11.4-1.4-2.5-.4-4.9-.6-7.4-.9-3.2-.4-6.4-.7-9.6-1-3.1-.3-6.3-.6-9.5-.9-4.4-.4-8.7-.7-13-1-5.1-.4-10.1-.7-15-.9-.8,0-1.6,0-2.3-.1-4.7-.2-9.4-.4-14-.5-1.2-.1-2.2-.1-3.4-.1-4.5-.2-9-.2-13.5-.2-11.2,0-22.2,0-33.1.5-4.1,0-8.2.1-12.3.3-4.1.1-8.2.2-12.4.4-3.4.1-6.7.3-10,.6-9.1.5-18.4,1.3-27.7,2.2-12.7,1.2-25.4,2.8-38.2,4.7l-4.8.7h0s0,0,0,0c-6.3,1-12.6,2-18.8,3.2-5.9,1.1-11.8,2.2-17.7,3.4-.6,0-1.3.3-1.9.4-6.1,1.3-12.1,2.7-18.2,4.1-6.2,1.4-12.6,3-18.8,4.6-6.2,1.6-12.3,3.3-18.5,5-.3,0-.5.2-.8.2-6.1,1.7-12.2,3.5-18.2,5.4-6,1.9-12,3.8-17.9,5.8-6.5,2.2-12.8,4.4-19.1,6.7h0c-1.9.7-3.8,1.4-5.6,2.1-56.9,21.4-111.3,49.6-159.5,84.3-2.2,1.5-4.4,3.1-6.5,4.7-.7.4-1.3.9-1.9,1.3-4,3-8,6.1-12,9.2-3.9,3-7.8,6.1-11.6,9.3-3.6,3-7.1,6-10.6,9-2.6,2.3-5.2,4.6-7.7,6.8-2.2,2-4.5,4.1-6.6,6.1-1.6,1.5-3.2,3-4.8,4.5-4.2,4-8.2,8.1-12.2,12.2-1.8,1.8-3.5,3.6-5.2,5.5-25.2,26.9-47,56.3-64.5,88.2-1.2,2.1-2.3,4.3-3.5,6.5-3,5.7-5.9,11.5-8.6,17.4-1.6,3.5-3.2,7.1-4.7,10.7-1,2.4-2,4.8-2.9,7.2-.8,1.9-1.6,3.8-2.3,5.8-1.1,2.9-2.2,5.9-3.3,8.8-.7,1.9-1.4,3.8-2,5.8-.9,2.8-1.9,5.5-2.7,8.3,0,.1,0,.2,0,.4,0,0,0,.1,0,.2,0,0,0,.1,0,.2-5.4,17.5-9.6,35.7-12.4,54.5,0,0,0,0,0,.2-2.2,14.8-3.6,30-4.1,45.5,0,0,0,0,0,.1-.2,4.9-.3,9.9-.2,14.8,0,.6,0,1.2,0,1.8,0,4.3.2,8.5.4,12.8.5,5.6,1.1,11.2,1.9,16.6.4,3.4.9,6.8,1.5,10.2.2,1.8.6,3.6.8,5.3,0,.2,0,.2,0,.4,2.6,14.9,5.9,29.4,10,43.4,0,.3.1.6.3,1,29.3,100.6,95.7,180.7,180.9,240.1.9.7,1.9,1.4,2.9,2.1,0,0,.1,0,.2,0h0c8.8,6.2,17.8,12.1,27.1,17.7.5.3,1,.5,1.4.8,3.3,2,6.5,4,9.8,5.9,6.5,3.9,13.2,7.5,19.9,11.2,20.1,10.9,41.1,20.9,62.5,29.7,7.1,2.9,14.3,5.8,21.5,8.6,7.2,2.8,14.5,5.4,21.8,7.9h0c.6.3,1.1.4,1.7.7,51.6,17.8,105.1,30.2,158.2,37.2.3,0,.7.1,1,.1,6.4.8,12.9,1.6,19.2,2.3,4.4.5,8.7.9,13.1,1.3,15.3,1.5,30.5,2.4,45.6,2.9,2.8.1,5.6.2,8.3.2,9.5.2,18.9.2,28.2.1,3.1,0,6.2,0,9.3-.2,3.1,0,6.2-.2,9.3-.3,4.8,0,9.5-.2,14.4-.4,4.8-.2,9.7-.4,14.5-.6,4.4-.2,8.7-.5,13.1-.8,5.4-.4,10.8-.8,16.3-1.4,9.6-.9,19.2-2,29-3.3,4.7-.7,9.5-1.3,14.2-2.1h0c.3-.1.5-.1.8-.2,0,0,0,0,0,0,.2,0,.2,0,.4,0,6.3-1,12.5-2.1,18.8-3.2.2,0,.5,0,.7-.1,5.8-1,11.5-2.2,17.3-3.4,7.8-1.5,15.5-3.2,23.2-5.1,5.9-1.4,11.8-2.8,17.7-4.4,4.9-1.2,9.8-2.6,14.7-4,3-.8,6.1-1.7,9.1-2.6,3.3-1,6.7-2,10-3.1,2.7-.8,5.4-1.6,8-2.5,6.3-2,12.6-4.2,18.9-6.4,5.6-1.9,11.2-4,16.7-6.1q0,0,.1,0h0c.6-.2,1.1-.4,1.6-.6,58.8-22.1,114.9-51.5,164.2-87.8,1.6-1,3-2.2,4.5-3.3,87.7-65.7,153.4-153.4,173.6-261.3,3.9-20.5,6.1-41.7,6.5-63.7-.4,16.8-1.8,33.2-4.2,49.1-.5,3.5-1.1,6.9-1.7,10.2,0,.5-.2,1.1-.2,1.6-19.8,108-85.2,195.8-172.6,261.6h-.1c0,0,0,.1,0,.1-1.4,1.1-2.9,2.1-4.4,3.2,0,0,0,.1-.2.1-.2.1-.3.2-.5.3-6,4.4-12.1,8.7-18.3,13-2,1.4-4.1,2.8-6.2,4.1-2.5,1.7-5,3.4-7.7,5.1-.7.5-1.4.9-2.2,1.4-2.9,1.8-5.7,3.6-8.6,5.4-1.5,1-3.1,1.9-4.6,2.8-3.3,2-6.7,4-10,5.9-3.4,2-6.7,3.8-10.2,5.7-3.3,1.9-6.7,3.7-10.1,5.5-10.8,5.8-21.9,11.4-33.2,16.6-3,1.5-6,2.9-9.1,4.2-3.6,1.6-7.2,3.3-10.8,4.8-6.7,2.9-13.4,5.7-20.3,8.4-4.1,1.6-8.2,3.3-12.4,4.8h0c-.5.2-1,.4-1.5.6-12.8,4.8-25.6,9.2-38.6,13.3-6.5,2.1-13,4.1-19.5,5.9-6.3,1.8-12.5,3.6-18.8,5.2-.4,0-.8.2-1.2.3-6.1,1.6-12.2,3.1-18.4,4.6-5.5,1.3-10.9,2.5-16.4,3.7-2.8.6-5.6,1.2-8.5,1.7-5,1.1-10.1,2.1-15.2,2.9-6.5,1.2-13.1,2.3-19.7,3.3-.3,0-.5,0-.8.2-34.7,5.3-69,8.1-102.3,8.4-43.3,1.7-88.5-.6-134.1-6.9-.3,0-.6-.1-.9-.1h0c-8.7-1.2-17.4-2.6-26.1-4.1-4.1-.7-8.3-1.4-12.4-2.2-7.9-1.5-15.8-3.1-23.6-4.8-4.1-.9-8-1.8-12.1-2.8-6.9-1.6-13.9-3.3-20.8-5.1-2.7-.7-5.3-1.5-8-2.1-6.4-1.8-12.7-3.5-19.1-5.4-6-1.8-12.1-3.7-18.1-5.6-6.6-2.1-13.1-4.3-19.6-6.6h0c-.6-.2-1.1-.4-1.8-.7-21.2-7.5-41.9-16-62.1-25.4-3-1.4-6-2.7-8.9-4.2-2.8-1.3-5.5-2.7-8.2-4-3.1-1.5-6.2-3.2-9.3-4.8-5.8-2.9-11.6-6-17.3-9.2-2.8-1.6-5.6-3.2-8.5-4.8-2.8-1.7-5.6-3.3-8.4-4.9-5.6-3.3-11.1-6.7-16.5-10.1-5.5-3.5-10.9-7-16.2-10.6-2.6-1.8-5.2-3.6-7.9-5.5-.9-.6-1.7-1.2-2.5-1.8,0,0-.1,0-.2-.1-1-.7-2-1.4-2.9-2.1-.8-.5-1.5-1-2.2-1.5-2.6-1.8-5.2-3.8-7.7-5.7-2.2-1.7-4.4-3.3-6.5-5-3.7-2.8-7.3-5.7-10.8-8.7-3.1-2.6-6.2-5.2-9.3-7.8l-1-.8c-3-2.7-6.1-5.3-9-8-.2-.2-.5-.3-.7-.6-2.1-2-4.2-3.9-6.3-5.9-3.6-3.3-7-6.7-10.4-10.1-1.7-1.7-3.3-3.3-5-5-1.5-1.6-3-3.2-4.6-4.8-4-4.2-7.9-8.5-11.7-12.8-.9-1-1.9-2-2.7-3.1-25.7-29.8-47.3-62.8-63.8-98.9-.5-1.2-1.1-2.3-1.5-3.5-2.8-6.3-5.5-12.7-7.9-19.2-3.6-9.5-7-19.3-9.9-29.2-2.3-7.4-4.2-15-6-22.7-1.6-6.9-3-14.1-4.2-21.2h0c-.2-1-.4-2.1-.6-3.1h0c-.2-1.3-.4-2.5-.6-3.7h0c-.2-1.1-.3-2.3-.5-3.4,0-.1,0-.3,0-.4-.1-.7-.3-1.4-.3-2.1,0-.4-.1-.8-.2-1.3h0c0-.7-.2-1.2-.2-1.8-.1-.9-.2-1.7-.4-2.5,0,0,0-.2,0-.4h0c-.3-1.9-.5-3.8-.7-5.6h0c-.4-3.5-.8-6.8-1.1-10.3-.1-2.1-.2-4.1-.2-6.2,0-.8,0-1.6,0-2.4,0-2.2,0-4.3,0-6.3,0-2.2,0-4.3,0-6.5,0-1.6,0-3.2,0-4.7,0-1.3,0-2.6.2-3.9,0-2.7.1-5.4.2-8.1.1-1.2.2-2.3.3-3.4.3-4.6.6-9.1,1.1-13.6.2-3.1.6-6.2,1-9.2.5-3.8,1-7.6,1.5-11.4.8-5.3,1.7-10.6,2.8-15.7,0-.2,0-.4,0-.6.3-1.8.7-3.6,1.1-5.3,1.5-7.2,3.3-14.4,5.2-21.4.9-3.5,2-7,3-10.4,1-3.5,2.1-7,3.4-10.4,1.1-3.4,2.3-6.8,3.6-10.2,1.2-3.4,2.5-6.8,3.9-10,1.2-3.3,2.6-6.5,4-9.7.1-.3.3-.7.4-.9,1.3-3.1,2.7-6.2,4.1-9.1,1.4-3.1,2.9-6.2,4.4-9.2.4-.7.7-1.3,1-2,1.4-2.7,2.7-5.3,4.2-7.9,3.3-6.2,6.8-12.2,10.4-18.1.2-.2.3-.6.5-.8,5.5-9,11.4-17.7,17.6-26.2,1.2-1.7,2.5-3.4,3.8-5.1,1.3-1.8,2.7-3.6,4-5.3,1.9-2.4,3.8-4.7,5.7-7.1,1.8-2.3,3.6-4.5,5.4-6.7.6-.8,1.2-1.5,1.8-2.1,1.5-1.8,3-3.5,4.5-5.3.9-1,1.9-2.1,2.8-3.2,2-2.3,4.1-4.6,6.2-6.8,2-2.2,4-4.3,6.1-6.5,2.2-2.2,4.4-4.4,6.6-6.6,1.8-1.9,3.7-3.7,5.6-5.5,1.5-1.5,3.1-3,4.7-4.6,2.2-2.1,4.4-4.1,6.7-6.2,2.3-2.1,4.7-4.3,7.1-6.4,8-7,16.3-13.9,24.8-20.5,1.7-1.4,3.4-2.7,5.2-4,2.1-1.7,4.3-3.3,6.4-4.9,9.1-6.8,18.4-13.3,28-19.5,3.2-2.1,6.3-4.2,9.6-6.2,9.6-6.1,19.5-11.9,29.5-17.5,3.3-2,6.7-3.8,10.1-5.5,6.7-3.7,13.6-7.3,20.5-10.6,3.4-1.8,6.9-3.4,10.4-5.1,7-3.4,14-6.6,21-9.6,1.5-.6,3-1.3,4.5-2,3.5-1.5,7-2.9,10.5-4.4,2.4-1,4.8-2,7.2-3,3.3-1.3,6.6-2.6,9.9-3.9h0c1.8-.8,3.6-1.4,5.5-2.1,5.2-2,10.5-3.9,15.8-5.8,2-.7,3.9-1.4,5.9-2.1,5.2-1.8,10.4-3.6,15.7-5.2,6-2,12.1-3.8,18.2-5.5.6-.2,1.1-.3,1.7-.5,6-1.8,12-3.5,18.1-5,6.4-1.7,12.7-3.4,19.1-4.9,5.4-1.3,10.9-2.5,16.4-3.7,1.3-.3,2.7-.6,4.1-.8,5.8-1.2,11.6-2.4,17.4-3.5.2,0,.4-.1.7-.1,4.7-.9,9.3-1.7,14-2.4,1.5-.4,3-.6,4.6-.8,1.6-.3,3.2-.5,4.9-.7,34.4-5.4,68.5-8.3,101.5-8.7,42.9-1.8,87.8.3,132.9,6.4,1.6.2,3.2.4,4.7.6,1.6.2,3.2.5,4.8.7,4.9.7,9.8,1.4,14.7,2.3,6.5,1.1,12.9,2.1,19.3,3.4,0,0,.1,0,.2,0,6.5,1.2,12.9,2.5,19.4,3.9,6.5,1.3,12.9,2.8,19.4,4.4,6.4,1.5,12.9,3.1,19.3,4.8h.2c6.4,1.7,12.8,3.5,19.2,5.4,6.4,1.8,12.7,3.7,19.1,5.8,6.4,2,12.7,4.1,19,6.3,1.9.6,3.7,1.3,5.6,2,0,0,0,0,0,0,3.6,1.2,7.1,2.6,10.7,3.9,10.7,4,21.4,8.2,31.9,12.7,3.5,1.4,7.1,3,10.5,4.5,6.9,3.1,13.9,6.3,20.6,9.6,3.4,1.6,6.8,3.3,10.2,5,6.8,3.4,13.5,6.9,20.1,10.5,3.4,1.8,6.6,3.6,9.9,5.5,3.2,1.8,6.3,3.5,9.3,5.4,3.3,2,6.7,4,10,6.1,6.4,3.8,12.6,7.9,18.7,11.9,3.1,2.1,6.3,4.3,9.4,6.4,0,0,.1,0,.2.2,2.9,1.9,5.6,3.9,8.4,5.9,4.3,3.1,8.6,6.3,12.8,9.5,12.6,9.6,24.7,19.8,36.3,30.4l.2.2c3.8,3.4,7.6,7,11.3,10.7,3.2,3.1,6.3,6.2,9.4,9.5,1.2,1.2,2.4,2.5,3.6,3.8,3.1,3.3,6.1,6.6,9.1,10,3.3,3.7,6.5,7.4,9.7,11.1,43.4,51.9,74.6,113.1,88.2,183.5-21.8-114.7-90.3-205-181.7-271ZM1269.6,594.1h0c0,.4.1.8.1,1.2,0,.1,0,.2,0,.3,0,.7.2,1.4.3,2.1,0-.7-.2-1.4-.3-2,0,0,0-.2,0-.2,0-.4,0-.7-.1-1.1,0-.3,0-.6-.1-1h0q0,0,0-.1c0,.2,0,.3,0,.3,0,.1,0,.4,0,.6ZM1270.1,597.9c.1.4.1.7.2,1,0,.2,0,.5,0,.7.9,6,1.6,12.1,2.1,18.2-.6-6.2-1.2-12.3-2.1-18.4,0-.2,0-.5,0-.7,0-.3,0-.6-.1-1h0c0-.1,0,0,0,0,0,0,0,.1,0,.1Z"/>
    </g>
    <g>
      <path class="st2" d="M998,180.5c-1.1-1.3-2.2-2.5-3.3-3.8,0,0-.1-.2-.3-.2-4.7-5.2-9.5-10.2-14.3-15.2-7.3-7.5-14.8-14.9-22.6-21.9-20.6-19-42.5-36.4-65.7-51.9-8.6-5.9-17.4-11.4-26.4-16.6-3-1.7-6-3.5-9-5.2-25.6-14.4-52.4-26.5-80.1-35.8-18-6.1-36.5-11.2-55.4-14.8-2.9-.6-5.9-1.2-8.9-1.7-.4,0-.9-.2-1.4-.2-13.4-2.4-27.1-4.1-40.8-5-18.7-1.5-37.7-1.6-57-.4-6,.4-12.1.8-18,1.5-16.4,1.6-32.5,4.1-48.2,7.3-.2,0-.5,0-.8.2-27.5,5.7-53.9,14-79.1,24.3-75.8,31.2-141,82-193.8,145-2.5,2.9-4.8,5.8-7.1,8.7h0c-3.6,4.5-7.1,9-10.6,13.5-20.8,27.4-39.5,56.8-55.8,87.6-2.8,5.1-5.5,10.3-8.1,15.5,0,0,0,0,0,.1-1.3,2.5-2.5,5.1-3.7,7.6h0c-8.2,17-15.6,34.2-22.5,51.7-1.4,3.5-2.7,7-4,10.5-1.2,3.6-2.6,7.1-3.8,10.7-1.1,3.1-2.2,6.3-3.2,9.4-.1.5-.3.9-.4,1.2-1.2,3.6-2.4,7.2-3.5,10.7-2.3,7.2-4.4,14.5-6.5,21.7-1.8,6.4-3.5,12.8-5.2,19.2-1.1,4.5-2.3,9.1-3.3,13.6-1.7,7.3-3.3,14.6-4.8,22-.8,4-1.5,7.9-2.3,11.9-.6,3.5-1.2,6.9-1.8,10.4-.7,4.4-1.5,8.8-2.1,13.2h0c-.5,3.4-1,6.8-1.4,10.1-.4,3.1-.9,6.4-1.2,9.6h0c-3,25.1-4.7,50.1-5,74.9h0c0,1,0,1.9,0,2.9,0,8.5,0,17,.2,25.4.2,6.3.5,12.6.9,18.9.1,5,.3,10.1.6,15,.1,2.9.3,5.9.5,8.9.3,5.1.6,10.2,1.2,15.4.5,5.7,1,11.3,1.7,17.1.2,1.5.4,3,.5,4.5.3,2.7.7,5.4,1,8.1.3,2,.5,4.1.8,6,.4,2.7.8,5.5,1.3,8.3.7,5.1,1.6,10.3,2.5,15.3,1.1,6.4,2.3,12.8,3.6,19.2,0,.1,0,.3.1.4,1.3,6,2.6,12.1,4,18.1.4,1.5.7,2.9,1,4.3.3,1.3.6,2.4.9,3.6.3,1.3.7,2.7,1,3.9.4,1.4.7,2.8,1.1,4.1h0c.4,1.6.8,3.2,1.2,4.7,6.9,25.9,15.3,51.5,25,76.5,1.2,3.1,2.5,6.3,3.7,9.4,1.3,3.1,2.6,6.2,3.9,9.3,2.8,6.5,5.6,13,8.6,19.4,1.3,2.7,2.5,5.5,3.8,8.1,2.1,4.3,4.1,8.5,6.1,12.7,1.3,2.8,2.7,5.5,4.2,8.2,1,2,2.1,4,3.2,6q0,0,0,.1c1.3,2.7,2.7,5.3,4.2,7.9,23,42.5,50.5,82.3,81.8,118,2.8,3.1,5.6,6.2,8.5,9.3,3.2,3.6,6.4,7,9.7,10.5.7.8,1.4,1.6,2.2,2.3,2.4,2.4,4.7,4.8,7.2,7.3.5.6,1.1,1.2,1.7,1.7,3.1,3,6.2,6,9.3,8.9,3.4,3.2,6.8,6.3,10.3,9.4,6.2,5.6,12.6,11.1,19.1,16.3,8.5,6.9,17.1,13.6,26,19.8,3.2,2.3,6.3,4.5,9.5,6.7,4.5,3.1,9,6.1,13.7,9,2.4,1.6,4.8,3.1,7.3,4.5,4.8,2.9,9.6,5.7,14.4,8.5,2.6,1.5,5.3,3,8,4.4,1.9,1.1,3.9,2.2,5.8,3.1,7.2,3.8,14.5,7.3,22,10.7,3.7,1.8,7.5,3.4,11.2,4.9,2.9,1.2,5.8,2.4,8.7,3.6,1.5.6,3,1.2,4.5,1.8,2.4,1,4.9,1.9,7.3,2.7,1.2.4,2.5.9,3.6,1.4,3.1,1.2,6.3,2.2,9.3,3.2.8.2,1.6.5,2.3.7,3.3,1.1,6.6,2.2,9.9,3.1.6.1,1.1.3,1.7.5,3.6,1.1,7.2,2.1,10.8,3.1,4.1,1.1,8.1,2.1,12.1,3.1,5.4,1.4,10.7,2.5,16.1,3.7,2.8.5,5.6,1.1,8.4,1.5,4.1.8,8.2,1.5,12.5,2.1,4,.8,8.3,1.3,12.6,1.8,3.6.4,7.2.9,10.8,1.2.7,0,1.3.1,1.9.2,4.3.5,8.6.9,12.9,1-1,0-2.1-.1-3.2-.2-.8,0-1.6-.1-2.3-.2-.5,0-1.1,0-1.6-.1-2.6-.3-5.1-.5-7.7-.7-.7,0-1.4-.2-2-.3-4.2-.4-8.4-.9-12.4-1.5-8.7-1.1-17.3-2.5-25.8-4.2-3.6-.6-7.1-1.4-10.6-2.2-4-.9-8-1.7-11.9-2.8-7.9-1.9-15.7-4.1-23.3-6.6-3.9-1.1-7.7-2.4-11.4-3.7-3.4-1-6.7-2.2-10-3.4-.8-.4-1.5-.6-2.3-.8-7.2-2.7-14.4-5.5-21.4-8.6-3.7-1.5-7.3-3.1-10.9-4.8-7.2-3.3-14.4-6.8-21.4-10.6-3.5-1.9-7-3.8-10.5-5.7-3.5-1.9-7-3.9-10.4-6-3.5-1.9-6.9-4-10.2-6.2-10.1-6.2-20-13-29.7-20-6.5-4.6-12.8-9.5-19-14.5-6.3-5-12.4-10.1-18.4-15.4-5.8-5-11.5-10.3-17.1-15.7-.5-.4-1-.9-1.5-1.4-8.5-8.1-16.7-16.5-24.7-25.2-2.7-2.9-5.4-5.9-8-8.9-31.6-35.7-59.2-75.6-82.5-118.2-1.5-2.6-2.9-5.3-4.2-8-11.1-20.8-21-42.2-29.9-64-9-21.9-16.8-44.3-23.5-67-2.3-7.5-4.4-15.2-6.4-22.8-.3-1.3-.7-2.8-1-4.1-.4-1.3-.7-2.6-1-3.9-.7-2.8-1.4-5.6-2-8.4-1.6-6.5-3-13.1-4.3-19.7-2.8-13.1-5.1-26.4-6.9-39.6-.5-3.1-.9-6.2-1.4-9.4-.2-2.3-.6-4.6-.8-7-.3-2.1-.5-4.2-.7-6.2-.8-7.1-1.5-14.2-2-21.3-.4-4.5-.8-9-.9-13.5,0-1.2-.2-2.4-.2-3.5-.3-6.2-.6-12.4-.7-18.6-.4-6.2-.6-12.5-.8-18.7-.1-3.1-.2-6.3-.2-9.5,0-3.1-.1-6.3,0-9.4,0-3.7,0-7.3.1-11,0-2.5,0-5.2.2-7.9.1-6.1.4-12.2.7-18.4,1-17.1,2.6-34.1,4.9-51.2.4-3.2.9-6.5,1.3-9.7.6-3.4,1.1-6.8,1.6-10.3h0c3-18.9,6.8-37.7,11.3-56.2.9-3.7,1.8-7.4,2.8-11,.3-1.3.7-2.7,1-4,1.6-6,3.3-12,5-17.9,2.2-7.4,4.5-14.8,6.9-22.2,1.2-3.7,2.4-7.3,3.7-10.9,1-3,2-5.9,3.1-8.9.6-1.6,1.1-3.1,1.7-4.6,8.9-24.2,19.1-48,30.6-71,1.3-2.5,2.5-5.1,3.9-7.5,22-42.8,48.4-82.9,78.9-119,2.5-2.9,5-5.8,7.5-8.7h0s0,0,.1-.1c1.7-2,3.5-4,5.3-6,2.1-2.4,4.2-4.7,6.3-6.9,1.5-1.6,3-3.2,4.6-4.8,1.9-2,3.8-4,5.7-5.9,2.1-2.2,4.4-4.3,6.5-6.4,1.7-1.7,3.5-3.4,5.2-5.1,1.5-1.4,3-2.8,4.5-4.2,9.6-8.9,19.4-17.4,29.5-25.4,1.8-1.5,3.7-3,5.6-4.4,4.8-3.7,9.6-7.4,14.5-10.8,1.4-1,2.7-2,4.2-2.9,5.5-3.9,11.1-7.7,16.8-11.3.8-.6,1.6-1,2.4-1.5,2.2-1.4,4.5-2.8,6.7-4.2,7.7-4.7,15.5-9.2,23.6-13.5,2.4-1.3,4.8-2.6,7.3-3.8.3-.1.5-.2.8-.4,2.7-1.4,5.4-2.7,8.1-4.1,2.8-1.3,5.5-2.6,8.3-3.9,2.2-1.1,4.6-2.1,6.9-3.1,6.1-2.6,12.1-5.2,18.3-7.5,5.7-2.2,11.4-4.3,17.2-6.3,2.9-1,5.8-2,8.7-2.9,3-1,5.9-1.9,8.8-2.7,3-.9,5.9-1.7,8.9-2.5.9-.3,1.8-.5,2.7-.7.2,0,.5-.2.7-.2,1.8-.5,3.5-1,5.3-1.4,0,0,.2,0,.3,0,6-1.5,12.1-2.9,18.3-4.2,3-.7,6.1-1.3,9.3-1.8,3.6-.7,7.3-1.3,11-1.9,0,0,.2,0,.3,0,0,0,0,0,.1,0,9.1-1.4,18.3-2.6,27.6-3.5,4.6-.5,9.3-.9,14-1.1,1.4-.2,2.8-.2,4.2-.3,4-.2,8-.3,12.1-.4,1.1,0,2.2-.1,3.4,0,4.1-.1,8.3-.1,12.5,0,4.8,0,9.6.2,14.3.4,4.8.2,9.6.5,14.4.8,9.7.7,19.3,1.7,28.7,3.1,0,0,.2,0,.4,0h0c2.8.4,5.6.8,8.3,1.2.8.1,1.7.3,2.6.4,3.2.5,6.3,1.1,9.4,1.7,2.1.3,4.1.7,6.1,1.2,4.8,1,9.6,2,14.3,3.2,3.5.7,6.8,1.6,10.1,2.5,3.4.8,6.6,1.7,9.7,2.6.2,0,.5.1.6.2,6.5,1.8,13,3.8,19.3,6,3.3,1,6.5,2.2,9.7,3.4,6.4,2.2,12.8,4.7,19.1,7.4,6.4,2.6,12.5,5.3,18.7,8.3,58.6,27.4,110.8,66.9,155.7,114.7,1.3,1.3,2.5,2.7,3.8,4,34.9,37.9,65.2,80.8,90.4,126.8.4.8.8,1.5,1.2,2.3,26.6,49,47.5,101.6,61.8,155.4.6,2.1,1.1,4.2,1.6,6.3.6,1.9,1,3.7,1.5,5.6,3.7,14.9,7,30,9.6,45.1.1.8.2,1.6.4,2.3,1.1,5.9,2.1,11.8,2.9,17.8.6,3.5,1,6.9,1.5,10.4.4,3.2.8,6.5,1.2,9.8.8,6.7,1.6,13.4,2.1,20.1.7,6.7,1.1,13.4,1.5,20.1.4,6.7.7,13.4.9,20.1.2,3.1.4,6.2.5,9.4.1,2.1.2,4.1.3,6.1.3,9.8.5,19.5.3,29.3,0,1.2,0,2.5,0,3.8,0,6.3-.2,12.5-.6,18.8,0,3.8-.3,7.5-.6,11.3-.2,3.7-.4,7.5-.8,11.3-.5,7.5-1.2,15.1-2.1,22.6-.5,5.4-1.2,10.8-1.9,16.2-.2,1.4-.4,2.8-.5,4.2-.1.7-.3,1.5-.4,2.3-.3,2.3-.7,4.6-1,6.9v.3c-.2,1.3-.5,2.7-.7,4-.6,3.8-1.2,7.6-1.9,11.3-.7,3.8-1.3,7.6-2.1,11.3-1.3,7-2.7,13.9-4.3,20.9-.1.5-.2,1.1-.4,1.7-1.7,7.5-3.4,14.9-5.4,22.3-1.8,7.5-3.9,14.9-6.1,22.2,0,.2-.1.4-.2.7-2.1,7.1-4.3,14.2-6.6,21.3-1.2,3.7-2.4,7.4-3.7,11-5,14.6-10.4,28.9-16.4,43-1.4,3.6-2.9,7.1-4.5,10.6-3,7-6.2,14.1-9.6,20.9-1.5,3.4-3.2,6.8-4.9,10.2-.4.8-.8,1.6-1.3,2.5-22,43.8-48.6,85-79.5,121.9h0c-1.1,1.4-2.2,2.7-3.4,4,0,0,0,0,0,0-2.5,3-5.1,5.9-7.7,8.8-2.5,2.8-5,5.6-7.5,8.3-.2.2-.4.4-.6.7-2.4,2.6-4.9,5.1-7.3,7.7-6.2,6.4-12.5,12.7-18.9,18.8-2.2,2.1-4.4,4.2-6.7,6.2-2.8,2.6-5.8,5.3-8.7,7.8-2.9,2.5-5.8,5-8.8,7.5-6.6,5.5-13.2,10.7-19.9,15.8-1.5,1.1-2.9,2.3-4.5,3.3-1.4,1.1-2.8,2.1-4.2,3,0,0,0,0,0,0-2.5,1.8-4.9,3.5-7.3,5.2-5,3.5-10,6.8-15.1,10-13.3,8.5-26.9,16.3-41.1,23.4-6.7,3.4-13.5,6.6-20.4,9.7-1.4.7-2.9,1.3-4.3,1.9-4.9,2.1-10,4.2-15,6.1-2.8,1.1-5.7,2.2-8.5,3.2-8.6,3.1-17.4,6.1-26.3,8.7-2.4.7-4.8,1.4-7.3,2.1-2.6.7-5.1,1.4-7.8,2-5,1.4-10,2.6-15.1,3.7-5,1.2-10.2,2.2-15.3,3.2-6.2,1.2-12.5,2.2-18.8,3.1-6.3.9-12.7,1.7-19.1,2.3-4.3.5-8.7.9-13.1,1.2-2.1.2-4.2.3-6.3.5,2.2,0,4.2-.2,6.3-.4,32.9-2,64.8-7.8,95.4-16.9,0,0,.2,0,.4-.1,11.8-3.6,23.5-7.6,35-12.1,6.9-2.7,13.8-5.7,20.5-8.7.3-.2.7-.3,1-.5,68.9-31.2,129.7-79.2,179.7-137.5l.3-.3c1.1-1.4,2.2-2.7,3.3-4,31.7-37.6,58.9-79.2,81-123.3.5-.8.9-1.7,1.3-2.5,2.5-5,4.9-10,7.2-15,7.1-15.3,13.6-30.8,19.4-46.5,1.7-4.4,3.2-8.9,4.8-13.4,2.4-6.9,4.7-13.9,6.8-20.8,1.2-3.9,2.4-7.8,3.5-11.7.3-.9.5-1.7.7-2.6,1.4-5,2.8-10,4-15,7.5-28.1,13.4-56.6,17.5-85.4.4-2.2.7-4.5,1-6.8.3-2.2.6-4.3.8-6.5,3.4-26.2,5.4-52.7,5.9-79.1,1-39.1-1.2-78.2-6.3-116.9-3.2-24.7-7.7-49.2-13.4-73.5-.4-1.9-.9-3.7-1.4-5.6-.4-2-.9-4-1.4-6-5.8-23.1-12.7-46-20.8-68.5-1.8-5.2-3.7-10.4-5.6-15.6-1-2.7-2.1-5.5-3.1-8.2-1.1-2.7-2.2-5.4-3.3-8.2-1.4-3.6-2.9-7.1-4.4-10.6-1.5-3.5-3-7-4.6-10.5-1.5-3.5-3.2-6.9-4.8-10.4-1.6-3.5-3.3-6.9-5-10.4-1.7-3.4-3.4-6.8-5.2-10.2h0c-.3-.9-.7-1.6-1.2-2.3-23.6-45.1-53-87.7-87.1-125.8ZM659.2,1272.7c.2,0,.6,0,.8,0-.8,0-1.6,0-2.5,0,.6.1,1.2,0,1.7,0ZM654.7,1272.8c.9,0,1.9,0,2.8,0-.5,0-.9,0-1.4,0-.4,0-.9,0-1.4,0ZM641.6,1272.9c1,0,2.1,0,3.1,0,2,0,4.1,0,6.1,0,.3,0,.7,0,1.1,0,.5,0,1.1,0,1.7,0h0c-3.7,0-7.3,0-10.9,0-.2,0-.3,0-.5,0-1.1,0-2.2,0-3.3-.1-.5,0-1,0-1.7,0-.4,0-.8,0-1.2,0-3.4,0-6.8-.2-10.1-.3-3.2,0-6.5-.3-9.8-.5,4.4.4,8.7.6,13,.7,4.2.2,8.4.3,12.6.4Z"/>
      <path class="st2" d="M840.1,111.6h0c-.8-1-1.7-1.9-2.5-2.8h0c-8-8.9-16.3-17.4-25-25.5-2.9-2.8-5.8-5.5-8.8-8.1-2.1-1.8-4.2-3.7-6.4-5.4-1.7-1.4-3.4-2.8-5.2-4.1-2.1-1.7-4.2-3.4-6.5-5-1.3-1-2.7-2.1-4.2-3.1-5-3.6-10.1-7-15.3-10.3-1.8-1.1-3.6-2.2-5.3-3.3-2.2-1.3-4.4-2.6-6.6-3.8-1.3-.7-2.7-1.5-4-2.2-2.4-1.3-4.8-2.6-7.3-3.8-4.7-2.4-9.6-4.7-14.4-6.8-2.2-1-4.5-2-6.8-2.8-.6-.2-1.1-.5-1.6-.7-2.4-1-4.7-1.9-7.1-2.7-.4-.1-.7-.2-1-.4-1.8-.7-3.6-1.2-5.3-1.8-2.5-.9-5-1.6-7.6-2.4h0c-9.4-2.8-19-5-28.6-6.6h0c-.2,0-.3,0-.4,0-16.8-2.7-33.8-3.6-51.1-2.3-8.1.6-16,1.6-23.9,3.2-.6,0-1.3.2-1.8.4-8.8,1.6-17.5,3.9-25.9,6.7,0,0-.2,0-.3,0l-7.6,2.5c-1.2.4-2.4.8-3.5,1.3-.5.2-1,.3-1.5.6-2.1.8-4.3,1.6-6.4,2.5-9.5,3.9-18.8,8.4-27.8,13.4-1.9,1-3.8,2.1-5.6,3.2-26.3,15.3-50.3,34.8-71.2,56.7-4.8,5.3-9.5,10.6-14.1,16.1-1.2,1.5-2.5,3-3.7,4.5-26.5,32.2-49.1,67-68.1,103.8-.7,1.5-1.5,2.9-2.2,4.4h0c-4.2,8.3-8.1,16.6-12,25-1.9,4.2-3.7,8.4-5.6,12.6-1.8,4.2-3.7,8.5-5.4,12.8-1.6,4.1-3.3,8.1-4.9,12.2-.1.5-.3.9-.5,1.3-1.6,4.1-3.1,8.2-4.6,12.3-6.1,16.7-11.5,33.7-16.5,50.9-.9,3.4-1.9,6.7-2.8,10.1,0,.2,0,.4-.1.6-1,3.2-1.9,6.6-2.7,9.9,0,0,0,0,0,0-.7,2.8-1.5,5.5-2.1,8.4-2.3,9.2-4.4,18.4-6.4,27.7-.8,3.3-1.4,6.6-2.1,9.9-1,4.7-1.9,9.4-2.7,14.1-1.1,5.7-2.1,11.3-3,17-.3,1.8-.6,3.5-.9,5.3-.8,5.1-1.5,10.1-2.3,15.1-1.9,13.3-3.6,26.6-5,39.9-.6,5.5-1.1,11-1.6,16.6-.5,5.3-1,10.6-1.4,15.9,0,0,0,0,0,.1-.2,1.7-.3,3.5-.4,5.1-.4,5.5-.8,11-1,16.5-.4,6.3-.7,12.5-.9,18.8-.3,6.2-.5,12.5-.7,18.8-.5,18.7-.4,37.3,0,55.8.8,21.5,2.2,43.4,4.3,65.3.4,5.4,1,10.7,1.6,16.2,1.2,11.4,2.5,22.8,4.2,34.2.5,3.8,1,7.6,1.6,11.3.7,4.9,1.5,9.7,2.3,14.5,1.5,9.2,3,18.3,4.8,27.3,2.3,12.4,4.9,24.8,7.7,37.2,1,4.3,2,8.5,3.1,12.8,3.1,12.8,6.5,25.5,10.1,38,1.1,3.8,2.2,7.6,3.4,11.3.9,3,1.8,6,2.8,9,.8,2.7,1.7,5.3,2.6,7.9.3,1.3.7,2.6,1.2,3.8h0c.3,1.2.8,2.4,1.1,3.5,1.7,4.8,3.3,9.6,5.1,14.3,1.5,4,3,8.1,4.6,12.2,1.3,3.3,2.6,6.6,3.9,9.9,3.5,8.8,7.2,17.5,11,26.2,3.3,7.4,6.8,14.8,10.4,22.2.3.8.7,1.6,1.1,2.5,1.7,3.5,3.5,7,5.3,10.5,2,3.8,4,7.7,6.1,11.4.8,1.5,1.6,3,2.5,4.5h0c8.6,15.6,17.8,30.7,27.8,45.3,2.4,3.5,4.7,7,7.2,10.3.3.4.5.7.7,1.1,2.5,3.4,4.9,6.7,7.4,10.1l.3.4c2.4,3.2,4.8,6.4,7.4,9.6.8,1.1,1.8,2.2,2.6,3.4,6.9,8.6,14.1,17,21.6,25.2h0c1.4,1.6,2.8,3.1,4.1,4.6,4.8,5.1,9.7,10.1,14.6,15,5.3,5.2,10.7,10.3,16.3,15.3,3.2,2.7,6.4,5.4,9.6,8,3.2,2.6,6.5,5.1,9.9,7.5.1.2.3.2.5.3,2.6,1.9,5.2,3.7,7.9,5.5,1.6,1.2,3.2,2.2,4.9,3.3,1.7,1.1,3.4,2.2,5,3.2,1.3.8,2.5,1.6,3.8,2.4,2.3,1.4,4.6,2.8,7,4.1,1.5.9,3,1.7,4.6,2.5,6.5,3.6,13.1,6.8,19.9,9.8,3.3,1.4,6.6,2.8,10,4.1,3.4,1.3,6.8,2.6,10.2,3.8,6.8,2.4,13.7,4.4,20.8,6.1.3,0,.8.2,1.1.3,1.9.5,3.7.9,5.7,1.3.6.1,1.1.3,1.7.4,4.2.9,8.4,1.7,12.7,2.3,6.3,1,12.7,1.7,19.2,2,.4,0,.8,0,1.2.1.3,0,.6,0,.9,0,1.6,0,3.2.1,4.8.2,3.2,0,6.4,0,9.6,0-.1,0-.3,0-.4,0-2,0-4.1,0-6.1,0-.7,0-1.4,0-2.1,0-.2,0-.3,0-.5,0-1.1,0-2.2,0-3.3-.1-2.1-.1-4.2-.3-6.3-.4-9.4-.8-18.7-2-28-4-1.1-.2-2.2-.4-3.3-.7-44.4-9.6-86.2-32.3-120.4-62.3-10.3-9.4-20.3-19.1-29.7-29.3-1.4-1.5-2.8-3-4.2-4.5-29.2-32-54-67.4-74.8-105.2-.8-1.5-1.7-3-2.5-4.6h0c-2-3.6-3.9-7.1-5.6-10.8-.3-.4-.5-.9-.7-1.3-1.9-3.6-3.7-7.2-5.4-10.9,0,0-.1-.2-.2-.3-1.9-3.8-3.8-7.6-5.6-11.5-1.8-3.9-3.6-7.9-5.4-11.8-1.8-4-3.5-7.9-5.1-12-1.7-4-3.4-8-5-12.1-1.6-4-3.2-8.1-4.8-12.2-3.2-8.5-6.3-17.1-9.3-25.8-.4-1.1-.8-2.2-1.2-3.4-.4-1.3-.9-2.6-1.3-3.9-.5-1.3-.9-2.6-1.3-3.9-1.2-3.6-2.4-7.3-3.5-11-.3-1-.6-2-.9-3-1.2-3.7-2.3-7.4-3.3-11.1-2.4-8.4-4.7-16.9-6.9-25.4-.9-3.5-1.8-6.9-2.6-10.4-.3-1.2-.7-2.4-.9-3.6-.9-3.8-1.9-7.6-2.7-11.5-3.2-14.3-6.1-28.5-8.7-42.9-.9-5.3-1.9-10.6-2.7-16-1.1-6.6-2.1-13.2-3.1-19.8-.6-4.4-1.2-8.8-1.8-13.1-.7-5.5-1.4-11-2-16.5-.6-5.5-1.3-11-1.8-16.4-.6-5.4-1.1-10.8-1.6-16.2-.8-9-1.5-18.1-2.1-27.1-.2-3.2-.4-6.4-.6-9.6-.6-9.6-1.1-19.2-1.4-28.7-.1-6.6-.2-13.2-.2-20,0-5.2,0-10.4,0-15.5.3-26.7,1.5-53.6,3.7-80.6.4-5.4.9-10.7,1.4-16,.5-5.2.9-10.4,1.6-15.5,1.8-16.9,4.1-33.9,6.8-50.7.5-3.4,1.1-6.8,1.6-10.2,2-11.8,4.3-23.7,6.8-35.4.9-4.6,2-9.2,3-13.7,1.6-7.1,3.3-14.2,5.1-21.2.8-3.2,1.6-6.4,2.5-9.5.6-2.4,1.2-4.8,1.9-7.1.3-1.1.6-2.3,1-3.4.9-3.3,1.9-6.7,2.9-10,.6-2.1,1.2-4.2,1.8-6.2.9-3,1.8-6,2.8-8.9,2.3-7.2,4.6-14.3,7.1-21.4,1.3-3.9,2.7-7.7,4.2-11.6,9.8-26.7,21.2-52.7,34.2-77.9.8-1.5,1.5-3,2.4-4.5h0c2.4-4.5,4.7-8.9,7.2-13.3.1-.2.3-.4.4-.7,2.3-4.1,4.7-8.1,7.1-12.2.6-1.1,1.3-2.1,1.9-3.2,2.3-3.8,4.6-7.6,7.1-11.4,5.5-8.8,11.4-17.6,17.5-26.1,2.1-3,4.3-6,6.5-8.9,1.1-1.5,2.2-3,3.4-4.5,2.7-3.5,5.3-6.9,8-10.3.4-.5.8-.9,1.2-1.4,3.3-4.2,6.6-8.2,10.1-12.2h0c1.3-1.5,2.5-3,3.8-4.5,3-3.5,6.2-7,9.3-10.5,37.3-38.7,84.3-70,136.5-82.7,3.9-1,7.9-1.8,11.9-2.5,4-.8,8-1.4,12.2-1.9,4-.5,8-.9,12-1.3,2-.2,4.1-.3,6.1-.3,1.1,0,2.2-.1,3.4,0,4.1-.2,8.3-.2,12.5,0,5.3.2,10.5.6,15.7,1.1,4.4.4,8.7,1,13,1.7,3.3.5,6.5,1.1,9.7,1.8,44.7,9.3,86.7,31.9,121.2,61.9,9.9,8.9,19.3,18.1,28.4,27.7.9,1,1.8,1.9,2.7,2.8,30.4,32.6,56.1,68.8,77.7,107.6.5.7.9,1.5,1.3,2.3,2.2,3.8,4.2,7.6,6.2,11.5,2,3.6,3.9,7.4,5.7,11.2,4,7.9,7.8,15.9,11.4,24,1.4,3,2.8,6,4.1,9.1,1.5,3.4,2.9,6.7,4.2,10,1.5,3.7,3.1,7.3,4.5,11.1.9,2,1.7,4.1,2.4,6.1,2.9,7.4,5.6,14.9,8.3,22.4h0c.7,2.1,1.4,4,2.1,6,.2.7.3,1.3.6,1.9,0,.1.1.3.2.4.8,2.4,1.6,4.7,2.4,7.2.8,2.4,1.6,4.8,2.3,7.2,1.6,5.1,3.2,10.2,4.7,15.3,1.6,5.6,3.2,11.2,4.8,16.8,1.4,5.2,2.8,10.5,4.2,15.7,1.2,4.5,2.3,9,3.4,13.5,1.6,6.7,3.1,13.4,4.5,20.1,1.1,5,2.1,10.1,3.1,15.1,2.2,10.9,4.2,21.8,5.9,32.7,1,5.5,1.8,11,2.6,16.4.1.9.2,1.8.4,2.6h0c.7,4.7,1.4,9.2,2,13.8,5.1,38.3,8.3,76.5,9.7,113.9.6,27.4.2,55.3-1.1,83.2-.2,4.6-.4,9.3-.7,14-.4,6.2-.8,12.5-1.3,18.8h0c-.2,3.1-.4,6.1-.7,9.2-.1,1.7-.3,3.4-.5,5.2-.4,5.3-1,10.6-1.5,15.8-.9,8.4-1.9,16.8-3,25.3-.6,5-1.3,10.1-2.1,15.2-.9,6.2-1.9,12.5-2.9,18.7-.9,5.9-1.9,11.8-3,17.6-.1.6-.3,1.2-.4,1.8-1.1,6-2.3,11.9-3.5,17.8-1.2,6.1-2.6,12.3-4,18.4-1.3,5.7-2.7,11.3-4,17-.1.5-.2.9-.4,1.4-.8,3.4-1.8,6.8-2.7,10.2-.7,2.6-1.4,5.3-2.1,8,0,.2,0,.4-.1.5-.7,2.9-1.5,5.7-2.4,8.5h0c-3.4,12.2-7.2,24.1-11.2,35.9-.9,2.5-1.7,5-2.6,7.5-.4,1.1-.8,2.3-1.2,3.3-.8,2.3-1.6,4.6-2.5,6.9-1.7,4.6-3.4,9.2-5.2,13.7-1.3,3.3-2.6,6.6-4,9.9-1.5,3.8-3.1,7.5-4.7,11.2-.7,1.8-1.5,3.6-2.3,5.4-1.2,2.9-2.5,5.8-3.9,8.6-4,8.8-8.3,17.6-12.7,26.2-.4.8-.8,1.5-1.2,2.3h0c-5,9.8-10.3,19.4-15.9,28.8-2.1,3.8-4.4,7.5-6.7,11.2-8.4,13.8-17.5,27.2-27.2,40.2-1,1.3-2.1,2.7-3.1,4.1-2.4,3.2-4.8,6.3-7.3,9.4-1.1,1.4-2.2,2.8-3.4,4.1-1.7,2.2-3.5,4.4-5.3,6.5-.7,1-1.5,1.9-2.3,2.8h0c0,0-.1.1-.1.1-.9,1.1-1.8,2.1-2.6,3.1-3.5,4.1-7,8.1-10.6,12-37.1,38.9-84.1,70.3-136.3,83.6-5.8,1.5-11.5,2.7-17.4,3.7,6.1-.9,12.2-2.2,18.2-3.8,52.1-13.1,98.9-44.4,136.1-83,2-2.1,4-4.3,5.9-6.5,1.9-2.1,3.8-4.3,5.7-6.4,0,0,.1,0,0-.1.9-1,1.7-1.9,2.5-2.9,28.1-33.2,51.8-69.2,71.7-107.4.4-.8.8-1.6,1.2-2.3,4.2-8.3,8.2-16.6,12.2-25,5.9-12.6,11.3-25.4,16.4-38.5,5.2-12.9,9.9-26.1,14.2-39.4,2.9-8.8,5.6-17.6,8.2-26.5h0c.8-3,1.6-5.8,2.4-8.6.5-1.8.9-3.5,1.4-5.3.4-1,.6-2.1.9-3.2.9-3.4,1.8-6.9,2.7-10.3,1.1-4.5,2.3-9.1,3.3-13.6.9-3.7,1.7-7.4,2.6-11.1.3-1.5.6-3,.9-4.5.9-4,1.7-8,2.5-11.9,1.9-9.3,3.6-18.5,5.2-27.7.8-4.6,1.6-9.3,2.3-13.9.7-4.4,1.4-8.9,2-13.3.7-4.8,1.4-9.8,2-14.6.8-5.8,1.4-11.7,2.1-17.5.5-4.4,1-8.8,1.4-13.1l1-11.3c.3-3.3.6-6.6.8-9.9.2-1.4.2-2.7.4-4.1.4-6,.8-12,1.2-17.9.3-5.2.6-10.5.8-15.7.6-12.1,1-24.1,1.2-36.1,0-3.7,0-7.4,0-11.2,0-3.9.1-7.8,0-11.7,0-6.1,0-12.3-.1-18.4-.2-6.5-.5-13-.8-19.6-.5-9.7-1.1-19.5-1.8-29.4-2-25.9-4.7-51.9-8.5-78-.2-1.5-.4-3-.6-4.5-.7-5-1.5-9.9-2.3-14.8-2.1-12.7-4.3-25.4-6.9-38-.9-4.4-1.8-8.8-2.7-13.2-1.1-5.4-2.4-10.9-3.7-16.3-.9-4.1-1.9-8.2-3-12.2-2.6-10.5-5.4-20.9-8.4-31.2-1-3.6-2-7.2-3.1-10.7-.3-1.2-.7-2.2-1-3.3-.9-3.1-1.9-6.2-2.9-9.3-.8-2.5-1.6-5-2.4-7.6-.7-2.2-1.5-4.4-2.2-6.6-.2-.4-.2-.8-.4-1.2h0c-1.3-3.7-2.6-7.4-3.9-11.2-1.2-3.3-2.4-6.7-3.7-10-.4-1.1-.8-2.2-1.2-3.3-6-16-12.6-31.6-19.7-46.9-3.7-7.9-7.5-15.6-11.4-23.3-2-3.8-4-7.6-6-11.4-.5-.8-.8-1.5-1.3-2.3h0c-20.9-38.4-45.7-74.4-75-107ZM656.1,1272.7c-.4,0-.9,0-1.4,0h0c1.5,0,3,0,4.6,0,.2,0,.6,0,.8,0,.4,0,.8,0,1.2-.1-1.2.1-2.5.2-3.8.2-.5,0-.9,0-1.4,0ZM651.8,1272.9c-.2,0-.4,0-.6,0,1.2,0,2.3,0,3.4,0-.4,0-.8,0-1.2,0-.6,0-1.1,0-1.7,0Z"/>
      <path class="st2" d="M811.7,800.2c-2.3,40.9-6,81.3-11.1,121.2-.3,2.7-.7,5.4-1.1,8.1-.3,2.8-.7,5.5-1.1,8.3-3.6,26.2-7.9,52.1-12.8,77.6-.5,2.4-.9,4.7-1.4,7.1-.4,2.2-.9,4.4-1.3,6.6-4.9,23.7-10.3,47.1-16.4,70-.2.8-.4,1.6-.7,2.3.3,0,.5,0,.8-.1,0,0,0,0,0,0,.2-.8.4-1.6.6-2.4,2.1-7.8,4.1-15.7,6.1-23.6,1.7-7.1,3.4-14.3,5.1-21.4.9-4.3,1.9-8.5,2.8-12.7.9-4.1,1.8-8.2,2.7-12.4,0-.5.2-1.1.3-1.7.3-1.6.7-3.3,1-4.9h0c.5-2.4,1-4.8,1.4-7.2.8-4.1,1.6-8.2,2.4-12.4,1.6-8.7,3.1-17.5,4.7-26.3,1.3-7.8,2.5-15.6,3.7-23.4.2-1,.3-2,.5-3,.7-4.3,1.3-8.7,2-13,.3-2.7.7-5.5,1.1-8.2,0-.3,0-.7,0-1,.2-1.4.4-2.9.6-4.4.1-.9.3-1.8.3-2.7,1.6-12.5,3.2-25,4.5-37.6.4-3.9.8-7.8,1.2-11.6,0-.7,0-1.3.2-1.9,1.5-14.6,2.7-29.4,3.8-44.1.6-8.5,1.2-17,1.7-25.6-.7.2-1.3.3-1.9.5ZM669.7,21.3c-2.6-2-5.2-3.7-7.8-5.2-1.7-1.1-3.4-2-5.2-2.8-.4-.3-.9-.5-1.4-.7-3-1.4-6.1-2.6-9.1-3.4-9.7-2.7-19.3-2.5-28.9.4-2.9.9-5.7,2-8.6,3.4-.6.2-1.2.6-1.8.9-1.7.9-3.4,1.9-5.2,3-2.4,1.4-4.7,3.1-7,5-16.7,13.2-32.9,35.1-47.7,65.5-.5,1-1.1,2.1-1.5,3.1-1.5,3.1-2.9,6.3-4.4,9.6-1.4,3.1-2.8,6.3-4.1,9.6,0,.2-.2.5-.3.8-1.4,3.3-2.7,6.7-4,10.2-1.4,3.7-2.8,7.5-4.2,11.3-5.4,15.1-10.6,31.5-15.4,49.2h0c-.3,1-.6,2-.8,3.1h0c-1.2,4.5-2.4,9.1-3.5,13.8-2.4,9.3-4.6,19-6.9,29-1.9,8.5-3.8,17.2-5.5,26.2,0,.3,0,.5-.1.7-.5,2.5-.9,4.9-1.4,7.3-.5,2.8-1,5.7-1.6,8.6-.7,3.4-1.3,6.9-1.8,10.4-1.6,9-3.1,18.4-4.6,27.9-1.1,8.2-2.3,16.5-3.3,24.8-.6,4.1-1,8.1-1.5,12.2l-1.1,9c0,.2,0,.3,0,.5-.4,3-.7,6-1.1,9-.5,4.8-1,9.7-1.6,14.7-.4,3.4-.8,6.7-1,10.2-.8,7-1.5,14.1-2.1,21.3-.6,6.6-1.2,13.2-1.8,20-.5,6.6-1,13.3-1.5,19.9,0,.9-.1,1.6-.2,2.4-.6,7.9-1.1,15.7-1.6,23.6-.2,2.3-.3,4.7-.4,7-.3,4.9-.6,9.7-.8,14.6-.2,2.8-.3,5.6-.4,8.5-.4,6.7-.7,13.3-.9,20,0,.2,0,.4,0,.6-.3,8.3-.6,16.7-.8,25-.3,8-.4,16.1-.6,24.2-.2,10.2-.3,20.4-.3,30.6,0,7.2,0,14.5,0,21.7,0,25.7.6,51.4,1.7,77.1.3,8.6.7,17.2,1.2,25.7.3,4.3.5,8.6.7,12.8.2,4.5.5,8.9.8,13.4.5,6.9,1,14,1.5,21,.8,9.9,1.6,19.8,2.6,29.7.4,4.2.8,8.5,1.2,12.8,0,.2,0,.4,0,.7,3,29.5,6.6,58.8,11,87.7,1,6.9,2,13.6,3.1,20.4.3,1.4.5,2.9.8,4.4.2,1.2.4,2.4.6,3.6,1.2,7.1,2.5,14.2,3.9,21.2.7,4.1,1.5,8.2,2.3,12.2.8,4.1,1.6,8.1,2.4,12.2,1.7,8.1,3.4,16.2,5.1,24.2,1.3,6,2.6,12,4.1,18,.4,1.6.7,3.1,1.1,4.7,0,0,0,0,0,0,.3,1.6.7,3.1,1.1,4.6,1.6,6.8,3.3,13.5,5.1,20.2,3,11.8,6.3,23.4,9.6,34.8,1.1,3.8,2.3,7.5,3.4,11.4.3,1.1.6,2.1.9,3.2,5.4,17.5,11.2,34.6,17.3,51.4,5,11.8,11.1,25.9,18.4,40.3.5,1,1,2,1.6,3.1,9.2,17.8,20.4,35.8,33.9,49.5,9.4,9.6,19.8,17.2,31.4,21.3,4.9,1.8,10,2.8,15.2,3.2-5.1-.4-10-1.5-14.8-3.2-11.9-4.1-22.4-11.8-31.9-21.6h0c-9.3-9.6-17.4-21.2-24.6-33.4-1.1-1.9-2.2-3.7-3.3-5.6-1-1.9-2.1-3.8-3.1-5.6-.8-1.5-1.6-3-2.4-4.5-.5-1-1-2-1.5-3-.9-1.8-1.8-3.6-2.6-5.4-2.5-5.1-4.8-10.1-7-15-3.2-7.2-6.2-14-8.7-20.2-3-8.3-5.9-16.8-8.7-25.3-1.4-4.3-2.8-8.6-4.2-12.8-1.4-4.3-2.7-8.6-4-12.9-.4-1-.6-2.1-1-3.1-6.5-21.6-12.4-43.6-17.7-66.2-.4-1.5-.8-3.1-1.1-4.7-.4-1.6-.8-3.1-1.1-4.8-6.6-28.5-12.4-57.6-17.3-87.2-.2-1.2-.4-2.4-.6-3.6-.3-1.4-.6-2.9-.7-4.4-5.8-35.7-10.5-72.1-14-108.7-10.9-112.9-11.7-228.9-4.6-339.2,2.6-41.1,6.2-81.4,10.8-120.5.4-3.2.8-6.3,1.1-9.4.4-3.1.7-6.1,1.2-9,1.4-11.6,3-22.9,4.6-34.2,2.2-13.9,4.5-27.4,7-40.4.6-2.8,1.1-5.7,1.7-8.5.5-2.7,1-5.4,1.6-8,4.9-24.6,10.3-47.4,16.1-68.2.2-1.1.6-2.1.9-3.1,0,0,0,0,0,0,1.2-4.3,2.4-8.6,3.7-12.7,1.3-4.4,2.7-8.9,4.1-13.2,1.1-3.7,2.3-7.3,3.6-10.9.2-.4.3-.8.5-1.3,1.3-4,2.7-7.9,4.1-11.6,1.3-3.8,2.7-7.5,4.1-11,0,0,0-.1,0-.2,2.7-6.7,5.3-13,8-19.1.5-.9.9-1.9,1.3-2.8,1.2-2.8,2.5-5.5,3.8-8.1h0c.5-1.1.9-2.1,1.4-3,13.2-26.6,27.4-46.1,42.2-58.4,6.4-5.4,13-9.4,19.7-12.1,11.4-4.4,23-4.7,34.6-.6,6.9,2.4,13.8,6.3,20.7,11.8,14.7,11.8,29.2,30.6,43.1,56.7.4.8.8,1.6,1.2,2.5,4.8,9.1,9.6,19.2,14.2,30.2,1.6,3.6,3.1,7.4,4.6,11.2,1.6,3.8,3.1,7.8,4.6,11.9,1.5,4,3,8.1,4.5,12.4.1.3.2.5.3.8,1.4,3.9,2.8,7.8,4.1,11.9,1.4,4.5,2.9,9.1,4.4,13.9.3.8.5,1.6.7,2.4,6,19.5,11.8,40.7,17.3,63.7.6,2.5,1.2,4.9,1.8,7.4.6,2.6,1.2,5.3,1.8,7.9,2.3,10.4,4.6,21.1,6.9,32.2,2.8,15.4,5.5,30.9,8,46.7.5,2.6.8,5.2,1.2,7.8.5,2.6.8,5.2,1.2,7.9,5.3,34.6,9.8,70.1,13.5,106.2,11.3,110.1,15,225.7,8.4,339-2.3,40.9-6,81.3-11.1,121.2-.3,2.7-.7,5.4-1.1,8.1-.3,2.8-.7,5.5-1.1,8.3-3.6,26.2-7.9,52.1-12.8,77.6-.5,2.4-.9,4.7-1.4,7.1-.4,2.2-.9,4.4-1.3,6.6-4.9,23.7-10.3,47.1-16.4,70-.2.8-.4,1.6-.7,2.3-1.3,5-2.6,9.9-4,14.7-2.3,8.1-4.6,16.3-7.1,24.3-.4,1.2-.9,2.4-1.4,3.6-.8,2.2-1.6,4.5-2.5,6.8-1,2.4-1.9,4.9-2.8,7.4-.8,2-1.5,4.1-2.4,6.1-1.9,4.9-3.9,10-6,15-.8,2-1.6,4.1-2.6,6.1-.1.3-.2.6-.4.9-1,2.4-2,4.7-3.1,6.9h0c-.4.9-.7,1.8-1.2,2.6h0c-5.2,11.1-11.1,22-17.7,31.9-.6,1-1.3,2-2,2.9-1.5,2.1-2.9,4.1-4.5,6-.8,1.1-1.6,2.2-2.5,3.2-2.4,3-4.9,5.8-7.5,8.5-1.5,1.5-3.1,3-4.7,4.6-5.4,4.8-11.1,9.1-17.3,12.4-2.2,1.2-4.3,2.3-6.5,3.1-2.5,1.1-5.1,2-7.8,2.8,2.8-.8,5.4-1.8,8-2.8,2.1-.9,4.2-1.9,6.3-3,25.1-13.3,43.1-40.8,56.7-69.6.4-.9.8-1.7,1.3-2.6h0c0,0,0-.1,0-.1,1.8-3.8,3.4-7.6,5.1-11.4.9-2.1,1.8-4.3,2.7-6.4,5.1-12.3,9.4-24.2,13.3-34.7,2-6.5,4-13,5.8-19.6,2-6.6,3.8-13.2,5.6-19.8.2-.8.4-1.6.6-2.4,2.1-7.8,4.1-15.7,6.1-23.6,1.7-7.1,3.4-14.3,5.1-21.4.9-4.3,1.9-8.5,2.8-12.7.9-4.1,1.8-8.2,2.7-12.4,0-.5.2-1.1.3-1.7.3-1.6.7-3.3,1-4.9h0c.5-2.4,1-4.8,1.4-7.2.8-4.1,1.6-8.2,2.4-12.4,1.6-8.7,3.1-17.5,4.7-26.3,1.3-7.8,2.5-15.6,3.7-23.4.2-1,.3-2,.5-3,.7-4.3,1.3-8.7,2-13,.3-2.7.7-5.5,1.1-8.2,0-.3,0-.7,0-1,.2-1.4.4-2.9.6-4.4.1-.9.3-1.8.3-2.7,1.6-12.5,3.2-25,4.5-37.6.4-3.9.8-7.8,1.2-11.6,0-.7,0-1.3.2-1.9,1.5-14.6,2.7-29.4,3.8-44.1.6-8.5,1.2-17,1.7-25.6h0c0-.1,0-.2,0-.3.5-8.5,1-17,1.4-25.6,0,0,0-.2,0-.4.4-8.7.8-17.3,1.1-26,.6-17.4.9-34.8,1.1-52.2,0-8.7.1-17.4,0-26.1,0-7.7-.1-15.4-.2-23.1,0-5.6-.2-11.2-.3-16.7-.1-5.9-.3-11.8-.5-17.6-.2-6.9-.4-13.7-.7-20.5-.3-8.5-.7-17.1-1.2-25.6,0-.3,0-.6,0-.8-.3-7.3-.7-14.5-1.2-21.8-.1-2-.2-3.9-.4-5.9-.5-7.8-1-15.6-1.6-23.3-.5-7.5-1.1-15.1-1.8-22.6-.2-1.8-.3-3.7-.5-5.5-.7-8-1.4-16-2.3-24-.7-8-1.6-15.9-2.4-23.8-2.6-23.7-5.5-47.1-8.8-70.1-.5-3.6-1-7.1-1.6-10.6h0c-.4-2.7-.8-5.3-1.2-7.9-.3-2.4-.6-4.8-1-7.1,0-.2,0-.5-.1-.7h0c-1.2-7.9-2.5-15.7-3.9-23.5-1.4-8.8-2.9-17.5-4.4-26.1-2-10.4-4.2-20.5-6.3-30.3-.6-2.6-1.2-5.3-1.8-7.9h0c-.5-2.1-1-4.1-1.5-6.2,0-.3-.1-.6-.2-.8,0-.1,0-.2,0-.4-.8-3.4-1.7-6.8-2.5-10.3-4.7-19.2-9.6-37.1-14.6-53.9-.2-.8-.5-1.6-.7-2.4-11.2-36.8-23.3-67.6-36-92.5-.4-.8-.8-1.6-1.2-2.4-15.6-29.9-32-51-48.6-63.5Z"/>
    </g>
  </g>
  <path class="st4" d="M191.4,311.2c20.8-41.6,45.7-80.9,74.4-116.5-120,78.3-210.8,194.9-241.8,340.4,28-91.1,89.2-166.1,167.4-223.8Z"/>
  <path class="st0" d="M117.4,667c-7.1-116.5,17.9-239.9,70.2-348C87.1,395.6,16.6,501.7,12.6,634.4c0,2.9-.1,5.8-.1,8.7,0,2.2,0,4.3,0,6.5,0,.8,0,1.6,0,2.4,0,4.1.1,8.3.3,12.5,11.9,133.2,84.9,236.3,186,309.4-50-94.8-78.7-202.2-81.4-306.9Z"/>
  <path class="st0" d="M445.4,1171.1c-29.3-32.1-54.2-67.5-75.1-105.3-58.5-20.4-114.4-47.6-164.1-81.8,23.3,42.6,50.9,82.5,82.6,118.2,48.8,29.4,101.7,52.6,156.7,68.9Z"/>
  <path class="st5" d="M783.1,291.9c44.8,250,51.3,556.6-15.8,807,52.3-8.1,105.3-21.8,156.3-40.9,67.9-132,89.9-288.8,86.9-435.1-5.3-136.3-32.6-282.4-99.8-404-50.3-17.4-102.6-29.7-154.5-36.9,9.7,32.1,18.7,68.6,26.9,109.9Z"/>
  <path class="st4" d="M803.7,75.2c11.8,10.7,23,21.9,33.6,33.6,2.7.8,5.5,1.6,8.2,2.4,47.5,13.7,93.5,33.4,136.7,58.3-75.5-80.3-171.8-137.4-283.8-152.9,38.7,11.4,74.9,32.2,105.2,58.7Z"/>
  <path class="st4" d="M1086.3,308.6c14.2,27.3,26.4,55.5,36.1,84.2,51.1,143,57.4,301.6,18.1,448.2-10.9,42.8-26.6,85-46.7,125.3,109.9-82.5,185-199.8,178.7-348.4-12.3-133.2-85.2-236.2-186.3-309.3Z"/>
  <path class="st5" d="M844.9,113c-1.7-.5-3.4-1-5.1-1.5,29.4,32.6,54.3,68.7,75.2,107.1,57.6,20.5,112.5,47.6,161.3,81.6-25.3-46.1-55.6-89.1-90.5-127-44.4-25.8-91.9-46.2-140.9-60.2Z"/>
  <path class="st2" d="M480.3,1205.9c-10.8-9.6-20.9-19.8-30.7-30.2-53.5-15.3-105.1-37.1-153.1-64.7,87.5,95,203.8,158.6,340.5,161.7-57.8-2.9-113.1-29-156.7-66.8Z"/>
  <path class="st3" d="M269.7,659.7c-2.9-145.5,18.8-301.2,85.4-432.8-57.7,22.2-112.7,51.5-161.2,87.4-54.5,109-80.8,234.4-74,352.7,2.4,105.4,31.4,213.8,81.9,309.2,49.9,35.6,106.4,63.9,165.8,85.1-65.9-121.2-92.8-266.2-98-401.5Z"/>
  <path class="st2" d="M486.9,308.2c7-46.5,15.6-87.7,25.4-123.7-50.8,8.2-102.1,21.7-151.6,40.4-68.4,131.7-90.9,288.5-88.4,434.8,4.8,135.5,31.3,280.8,97.2,402.2,52,18.4,106.1,31.3,159.8,38.7-74-243-76.5-547.9-42.4-792.3Z"/>
  <path class="st1" d="M754.7,1140.5c3.9-12.8,7.6-25.9,11.1-39.1-34.4,5.3-68.5,8.2-101.5,8.6-43,1.8-87.9-.3-133.2-6.3,5.3,17.3,10.9,34.4,16.9,51,5,11.9,11.1,26.2,18.4,40.7,34,3.6,68.2,4.6,102.3,2.8,21.7-.5,43.4-2.2,65-4.9,8.5-18.4,15.3-37.2,21.1-52.9Z"/>
  <path class="st1" d="M545.6,90.6c-38.2,5.5-75.8,14-112.4,25.5-27.4,32.1-50.7,67.2-70.3,104.2,49-18,99.8-31.1,150.1-39,9.8-35.6,20.8-65.9,32.6-90.7Z"/>
  <path class="st0" d="M916.3,220.9c65.5,121.5,91.9,266.5,96.8,402,2.5,146.2-20,302.8-87.9,434.6,58.8-22.2,114.8-51.6,164.2-87.8,54.5-109.5,80.6-235.3,73.5-354-2.7-107-32.9-216.9-85.1-313.2-48.8-34-103.7-61.1-161.3-81.6Z"/>
  <path class="st4" d="M732.4,1195.9c-21.1,2.7-42.4,4.4-63.7,4.9-33.5,1.9-67.3,1-100.8-2.4,19.8,38.5,48.4,77.1,89.2,74,35.2-7.4,58.5-41.1,75.3-76.6Z"/>
  <path class="st2" d="M766.7,1101.3c-3.6,13.3-7.3,26.4-11.3,39.4-5.8,15.7-12.6,34.3-21.2,52.6,39.7-5,78.8-13.7,116.9-25.8,28-33,51.6-69,71.3-107-50.8,19.1-103.6,32.8-155.7,40.9Z"/>
  <path class="st0" d="M750.8,179c-11.5-37.1-23.9-67.8-36.7-92.3-54.4-5.4-109.2-4.2-163,3.1-12,24.6-23.1,54.9-33.2,90.8,34.1-5.1,67.8-7.9,100.6-8.2,42.8-1.6,87.4.6,132.3,6.6Z"/>
  <path class="st5" d="M429.1,114.1c4.6-5.4,9.2-10.8,14.1-16.1,34.2-35.8,76.7-65.3,124-80.3-114.2,18.2-209.8,78.2-283,161.3,45.2-27,94-48.8,145-64.9Z"/>
  <path class="st0" d="M1005.3,1097.9c-48.2,30.4-100.7,54.7-155.5,72.1-3.8,4.4-7.7,8.8-11.6,13.1-46.1,47.9-107,84.4-174.3,89.3-.6,0-1.2,0-1.8,0,2.6,0,5.1,0,7.8-.1,138.2-8.3,252.1-76.2,335.5-174.4Z"/>
  <path class="st0" d="M1206.2,358C1106.6,159.3,916.2,36,710.6,13.1c109.9,19,208.2,80.3,283.9,163.6,154.5,93.4,270,253,278,437,11.7,205.7-101.7,378.6-264.5,482.4-85.7,99.9-203,169.9-338.3,176.2-2.8.1-5.6,0-8.4.1-6.5.4-12.9.5-19.3.3-140.4-1.3-259.8-66.3-349.1-164-134.6-78.5-239.4-202.8-273.8-357.3,10.4,58.7,29.4,116.9,57.4,173,156.4,312,536.1,438,848.1,281.6,312-156.4,438-536.1,281.6-848.1Z"/>
  <path class="st2" d="M604.4,1268.3c-.3,0-.7,0-1.1,0,4,.9,8.1,1.7,12.2,2.3,5.6.8,11.3,1.5,16.9,1.8-9.4-.8-18.7-2-28-4ZM669.8,4.2c-24.9-1.5-49.9-1.5-75,.1-81.9,4.9-163.5,26.3-239.9,65.8C42,223-87.6,617.3,73.1,926.2c99.2,199.4,307.6,333.7,528,349.2,24.9,1.8,49.9,2.1,74.9.7,3.7-.2,7.4-.4,11.1-.7,454-28.3,723.9-514.7,519.7-917.6C1105.4,147.9,892.4,17.3,669.8,4.2ZM1265.2,548.8s0,0,0,.1c.1,1.2.3,2.4.5,3.7,1.8,13.3,3.1,26.7,3.9,40.1,0,.1,0,.2,0,.4h0c0,.1,0,.2,0,.3,0,.1,0,.4,0,.6h0c0,.4,0,.7,0,1.1,0,.1,0,.2,0,.3,0,.8,0,1.6.1,2.4,0,.2,0,.2,0,.3,0,.4,0,.8,0,1.2,0,.3,0,.6,0,.9,1.8,34.1.7,68.3-3,102.1,0,.1,0,.3,0,.5,0,.5-.2,1.1-.2,1.6,0,.9-.2,1.8-.3,2.8-3,25.3-7.5,50.3-13.5,75-.6,2.7-1.3,5.5-2,8.1,0,0,0,0,0,.2-34.3,134.3-111.8,257.8-225.1,344.6-77.6,60.9-164.4,100.4-253.8,119.7-.1,0-.3.1-.4.1-2.1.5-4.1.9-6.2,1.3-.3,0-.5,0-.8.1-20.7,4.3-41.5,7.5-62.4,9.6-.2,0-.5,0-.7,0-8.4.8-16.8,1.5-25.2,2-2.1.2-4.2.3-6.3.3,0,0-.1,0-.2,0-12.2.7-24.4.9-36.5.8-.1,0-.3,0-.4,0-9.4-.1-18.8-.4-28.3-1-.3,0-.7,0-1.1,0-.1,0-.2,0-.4,0-.5,0-1.1,0-1.7-.1-13.2-.7-26.4-1.9-39.5-3.6-.2,0-.4,0-.7,0-1,0-2-.2-2.9-.4-.4,0-.8,0-1.2-.1-197.1-25.8-380.4-144.4-477-341.3-17-33.7-30.5-68.4-40.7-103.6-.2-.6-.4-1.2-.5-1.8-7.1-24.4-12.4-49.1-16.4-73.9,0-.2,0-.5-.1-.7,0-.3,0-.7,0-1.1-2.2-14.3-3.9-28.7-5-43.1-.1-.9-.2-1.8-.3-2.7h0c0-1.2-.1-2.3-.3-3.4,0-1.3-.1-2.5-.2-3.8,0-.8,0-1.7-.2-2.6,0-.3,0-.7,0-1,0-.9,0-1.8-.2-2.7h0c0-1.3-.2-2.7-.2-4-.2-2.1-.3-4.2-.3-6.3-1.3-33.2,0-66.3,3.9-99.1,0-.2,0-.4,0-.6,1.9-15.6,4.3-31,7.4-46.3,0-.1,0-.2,0-.3,1.4-7.1,2.9-14.1,4.5-21,0-.1,0-.3.1-.4,5.6-24.6,12.7-48.8,21.3-72.5C105.8,284.4,212.8,156,361.3,82.8c34.2-17.5,69.5-31.4,105.4-41.9,18.2-5.4,36.6-9.9,55.2-13.5.2,0,.5-.2.7-.2,11-2.2,22-4,33.1-5.5,0,0,.2,0,.2,0,9-1.2,18-2.3,27-3.2,3.9-.3,7.9-.7,11.8-1,2.4-.2,4.7-.4,7-.5,4.2-.3,8.4-.5,12.6-.7,11.5-.5,23-.8,34.6-.6,4.3,0,8.6,0,12.9.3,2.5,0,5.2,0,7.8.2,3.3.1,6.5.3,9.7.5,8.9.5,17.9,1.2,26.7,2.2.1,0,.2,0,.3,0,6,.5,12.1,1.2,18,2.1.2,0,.5,0,.8,0,16.8,2.2,33.6,5.1,50.1,8.6.2,0,.5,0,.8.2,180.2,38.4,343.1,153.7,429.4,328.6,31.1,60.6,50.6,125,59.6,190.5Z"/>
  <path class="st1" d="M1273.2,640.7s-282.5,405-631.5,405.3c-349,.3-632.3-404.2-632.3-404.2,0,0,282.5-405,631.5-405.3,349-.3,632.3,404.2,632.3,404.2Z"/>
  <path class="st1" d="M1273.2,638.3s-281,406-630,407.6c-349,1.6-633.7-401.8-633.7-401.8,0,0,281-406,630-407.6,349-1.6,633.7,401.8,633.7,401.8Z"/>
  <g class="globe-eye-blink">
  <path class="st2" d="M1154.5,496.6c-1-1.1-2.2-2.3-3.2-3.4,0,0-.1-.2-.2-.2-51-53-107.1-101.6-167.6-142.8h0c-1.5-1.1-3-2.1-4.5-3.1h0c-46.2-31.1-95.1-57.9-146.4-79-10.5-4.2-21.2-8-32-11.6h0s-4.4-1.5-4.4-1.5c-50.1-16-102.4-25.1-155.2-25.5-38,.3-75.7,5-112.5,13.6-1.5.3-3.1.7-4.6,1.1h0c-25.4,6.2-50.2,14.1-74.5,23.8-40.9,16.9-80.2,37.3-117.6,60.5-1.7,1-3.3,2-5,3-68.9,43.2-131.9,95.8-189.2,154h0c-1.3,1.4-2.7,2.7-4,4.1h0c-42.6,43.7-82.1,90.6-118.4,139-.6.8-1.2,1.6-1.8,2.4h0c-.2.4-.4.6-.6.9-1,1.3-2.1,2.7-3,4.1-.4.5-.7,1-1.1,1.5-.4.4-.6.9-1,1.3-.3.5-.6.8-.9,1.2-.9,1.2-.9,3,0,4.2l.9,1.3c.5.7,1.1,1.5,1.7,2.2l.4.5c1.1,1.5,2.2,3,3.4,4.4.6.8,1.2,1.7,1.9,2.5l.2.3h0c34.7,45.7,73,88,113,128.6h0c.9.9,1.7,1.9,2.6,2.7,0,0,0,.1.2.1,1.1,1.2,2.4,2.5,3.6,3.6,51,50.4,105.9,97.7,165.1,138.4.7.5,1.3.9,2.1,1.4,47,32.1,96.8,59.9,149.8,81.7,10.8,4.3,21.7,8.4,32.8,12.1.4.2.8.3,1.3.4,81.5,27.2,169.5,35.2,254.1,17.2,5.4-1.2,10.8-2.5,16.1-3.8.4,0,.8-.1,1.1-.3h0c68.6-17.1,134.4-47.1,196.4-85.8h0c.7-.5,1.5-.9,2.2-1.4h0c69.3-43.6,133.8-98,191.2-157.2h0c.7-.8,1.4-1.5,2.1-2.2,45.5-47,86.7-97.1,122.5-147,.2-.2.3-.5.5-.7q0,0,0-.1c.4-.5.8-1.1,1.1-1.6h.1c.1-.3.2-.4.3-.6.2-.2.3-.5.5-.7l-2.5-3.5h0c-35.4-48.7-74.4-96.1-116.9-140.5ZM1271.6,639.3l.4.5c.3.2.5.5.7.8-.2.3-.5.6-.7.9,0,0,0,.1,0,.2h-.1c0,.2-.2.3-.3.5-36.5,46.3-76.6,92.4-119.8,136-.7.7-1.4,1.4-2,2h0c-57.2,57.6-120.2,110.5-188.2,153.8h0c-.7.5-1.4,1-2.1,1.4h-.1c-62.1,39.3-128.4,70.3-198.5,89,0,0,0,0,0,0-.4.2-.7.3-1.1.3-7.4,2-14.8,3.8-22.3,5.5-84.5,18.6-171.5,10.8-253.2-15-.4-.1-.8-.2-1.2-.4h0c-40.2-12.7-79.1-29.8-115.9-50.2-22.9-12.9-45.3-26.8-67-41.5-.7-.5-1.4-.9-2-1.4,0,0,0,0,0,0-60.8-41.4-116.8-89.6-168.1-142.5,0,0,0-.1-.2-.1-.8-.9-1.7-1.8-2.6-2.8,0,0,0,0,0,0-39-40.5-75.1-83.6-108.4-128.5-1.2-1.6-2.3-3.2-3.5-4.8l-.4-.5c-.2.1-.3.3-.4.5h0c-.4.5-.7,1-1.1,1.4,0,0,0,.1-.1.2v-.2s0-3.8,0-3.8v-.2s1.6,2.2,1.6,2.2c0-.2.2-.4.4-.5,1.2-1.7,2.5-3.4,3.8-5.1,33.8-45,71.3-87.5,110.9-127.5h0c1.2-1.3,2.4-2.7,3.7-3.8,2.1-2.2,4.2-4.3,6.4-6.5,55.4-54.5,115-104.9,180.1-147.1,1.5-1,3.1-2.1,4.7-3h.1c14.2-9.1,28.6-17.9,43.3-26.1,47.5-26.8,98.7-48.3,151.7-61.9,1.5-.5,3-.8,4.5-1.2,69.3-17.3,141.2-21.1,211.9-6,21.3,4.6,42.2,10.3,62.8,17.2,1.5.5,2.9.9,4.3,1.4,63.3,21.4,123.5,52.9,180.1,90.9h0c1.4,1,2.8,2,4.3,2.9h0c59.5,40.5,115,88.2,165.8,139.4,0,0,.2.1.2.2,1.1,1,2,2,3,3.1,41.6,42,80.1,86.3,114.9,130.7h0q0,.2,0,.2Z"/>
  <path class="st2" d="M1273.2,638.3s-282.1,184-631,185.6c-349,1.6-632.7-179.7-632.7-179.7,0,0,282.1-184,631-185.6,349-1.6,632.7,179.7,632.7,179.7Z"/>
  <circle class="st3" cx="641.4" cy="641.3" r="328.8" transform="translate(-265.6 641.3) rotate(-45)"/>
  <path class="st2" d="M810.9,351.9h0c-1.3-.8-2.6-1.6-3.9-2.3-15.8-9.4-32.5-17.4-50-23.8-86.3-32.8-175.2-26.4-250.8,7.5-1.4.6-2.8,1.2-4.1,1.9,0,0,0,0,0,0-72.9,33.8-133,93.4-166.1,168.1-20.3,45.7-30.4,97.1-27.1,151.7,2.2,45.5,14,88.9,33.2,128.2,28.8,58.9,74.3,108.8,129.9,143.1,0,0,0,0,0,0,.5.4,1,.7,1.6,1,53.5,32.7,116.1,50.8,181.8,48.6,44-1.1,85.6-11.2,123.1-28.5.5-.2,1.1-.4,1.5-.7,0,0,0,0,.1,0,72.1-33.6,129.5-93.5,161.8-166.2,20.9-46.9,31.3-99.1,28.7-153-1.3-44.4-12.1-88.3-30.6-128.5-27.6-60.3-72.5-112.5-129.1-147.1ZM783.3,930.6h0c-.5.3-1.1.6-1.6.8-39.1,18.8-82.1,30.2-126.9,32.2-65.4,4.7-128.5-12.1-182-44.3-.5-.3-1.1-.6-1.6-.9h0c-52.3-31.9-95.5-78.3-122.7-133.4-19.6-39.7-30.9-83.8-31.4-130.2-1.9-55.4,11-108.7,35.1-155.8,32-62.4,83.7-113.9,146.5-145.3,0,0,0,0,0,0,1.3-.8,2.6-1.4,4-2,38.4-18.5,80.9-29.6,125.4-30.9,64.4-3.4,126.8,13.4,180.3,44.8,1.3.7,2.6,1.5,3.8,2.3h0c51.6,31.2,94.6,76.2,122.5,129.8,20.5,39.4,32.8,83.4,34.4,130,2.7,55.3-9.9,108.1-33.8,154.7-32.8,64-86.8,116.4-152,148.2Z"/>
  <path class="st4" d="M774,626.9c7.9,73.3-45,139.1-118.3,147-73.3,7.9-139.1-45-147-118.3-7.9-73.3,45-139.1,118.3-147,73.3-7.9,139.1,45,147,118.3Z"/>
  <path class="st2" d="M729.5,536.4c-40.3-36.3-100.6-47.7-155-17.5-6.3,3.5-12.1,7.4-17.5,11.6-83,63.7-63.4,193.7,31.9,236.4,4.6,2,9.3,3.8,14.2,5.5,27.9,9.2,55,8.9,79.2,1.2,58.9-18.1,100.4-78.4,92.4-146.8-3.7-36.9-20.7-68.3-45.1-90.4ZM677.8,763.9c-27.8,8.7-58.3,9-86.3-1.8-11.4-4.3-22.4-10.4-32.6-18.4-56.4-42.6-62.2-130.1-17.3-182.7,6.5-8,13.7-14.9,21.4-20.7,48.5-37.2,116.7-32.9,162.4,2,25.3,19.4,43.8,48.2,48,84.7,7.2,66.3-38.8,119.3-95.6,137Z"/>
  <path class="st2" d="M753.1,463.5c11.3,53.9-23.3,106.8-77.2,118.1-53.9,11.3-106.8-23.3-118.1-77.2-11.3-53.9,23.3-106.8,77.2-118.1,53.9-11.3,106.8,23.3,118.1,77.2Z"/>
  <path class="st2" d="M683,776.1c7.5,27-8.2,55-35.2,62.5-27,7.5-55-8.2-62.5-35.2-7.5-27,8.2-55,35.2-62.5,27-7.5,55,8.2,62.5,35.2Z"/>
  <g>
    <path class="st2" d="M857.9,792.4c1.7,4.5-.7,9.6-5.2,11.2-4.5,1.7-9.6-.7-11.2-5.2-1.7-4.5.7-9.6,5.2-11.2,4.5-1.7,9.6.7,11.2,5.2Z"/>
    <path class="st2" d="M749.4,860.1c3.3,8.9-1.3,18.9-10.2,22.2-8.9,3.3-18.9-1.3-22.2-10.2-3.3-8.9,1.3-18.9,10.2-22.2,8.9-3.3,18.9,1.3,22.2,10.2Z"/>
    <path class="st2" d="M857.1,535.2c1.7,4.5-.7,9.6-5.2,11.2-4.5,1.7-9.6-.7-11.2-5.2-1.7-4.5.7-9.6,5.2-11.2,4.5-1.7,9.6.7,11.2,5.2Z"/>
    <path class="st2" d="M888.6,607.9c.8,2.3-.3,4.8-2.6,5.6-2.3.8-4.8-.3-5.6-2.6-.8-2.3.3-4.8,2.6-5.6,2.3-.8,4.8.3,5.6,2.6Z"/>
    <path class="st2" d="M807,845.4c.8,2.3-.3,4.8-2.6,5.6-2.3.8-4.8-.3-5.6-2.6-.8-2.3.3-4.8,2.6-5.6,2.3-.8,4.8.3,5.6,2.6Z"/>
    <path class="st2" d="M386.7,623.4c.8,2.3-.3,4.8-2.6,5.6-2.3.8-4.8-.3-5.6-2.6-.8-2.3.3-4.8,2.6-5.6,2.3-.8,4.8.3,5.6,2.6Z"/>
    <path class="st2" d="M424.6,671.6c.8,2.3-.3,4.8-2.6,5.6-2.3.8-4.8-.3-5.6-2.6-.8-2.3.3-4.8,2.6-5.6,2.3-.8,4.8.3,5.6,2.6Z"/>
    <path class="st2" d="M844.5,589.4c.8,2.3-.3,4.8-2.6,5.6-2.3.8-4.8-.3-5.6-2.6-.8-2.3.3-4.8,2.6-5.6,2.3-.8,4.8.3,5.6,2.6Z"/>
    <path class="st2" d="M444.5,587.6c1.7,4.5-.7,9.6-5.2,11.2-4.5,1.7-9.6-.7-11.2-5.2-1.7-4.5.7-9.6,5.2-11.2,4.5-1.7,9.6.7,11.2,5.2Z"/>
  </g>
  </g>
</svg>