<?xml version="1.0" encoding="UTF-8"?>
<svg id="Layer_1" data-name="Layer 1" xmlns="http://www.w3.org/2000/svg" viewBox="0 0 567.6 589.7">
  <defs>
    <style>
      .cls-1 {
        fill: #fff;
      }
    </style>
  </defs>
  <circle class="cls-1" cx="178.48" cy="138.23" r="25"/>
  <circle class="cls-1" cx="441.19" cy="411.7" r="25"/>
  <path class="cls-1" d="M396.3,232.46h-39.06V0h-178.62C80.13,0,0,76.26,0,169.99v249.67c0,1.81.03,3.65.09,5.46,2.33,66.68,50.31,112.97,52.35,114.91,33.72,32.03,78.54,49.67,126.18,49.67,98.49,0,178.62-76.26,178.62-169.99v-144.25h39.06c70.74,0,128.3,57.55,128.3,128.3v14.65c0,70.74-57.55,128.3-128.3,128.3h-48.05c-11.85,0-21.5,9.64-21.5,21.5s9.65,21.5,21.5,21.5h48.05c94.45,0,171.3-76.84,171.3-171.3v-14.65c0-94.45-76.84-171.3-171.3-171.3ZM82.61,510.46c-.23-.23-14.76-14.41-26.16-37.07-13.21-28.5-13.46-54.63-13.46-54.99v-14.65c0-70.74,57.55-128.3,128.3-128.3h142.94v144.25c0,70.85-60.84,128.49-135.62,128.49-36.29,0-70.39-13.41-96-37.74ZM314.24,232.46h-142.94c-51.02,0-96.89,22.43-128.3,57.93v-120.4c0-70.85,60.84-128.49,135.62-128.49h135.62v190.96Z"/>
</svg>