<?xml version="1.0" encoding="UTF-8"?>
<svg id="Layer_1" data-name="Layer 1" xmlns="http://www.w3.org/2000/svg" viewBox="0 0 574.6 627.13">
  <defs>
    <style>
      .cls-1 {
        fill: #fff;
      }
    </style>
  </defs>
  <path class="cls-1" d="M182.12,627.13c-48.64,0-94.38-18.94-128.78-53.34-1.43-1.43-14.33-14.58-26.98-36.11C10.15,510.08,1.06,480.03.09,450.8l49.97-1.66c1.71,51.58,38.27,88.93,38.64,89.3,24.95,24.95,58.13,38.69,93.42,38.69,72.85,0,132.12-59.27,132.12-132.12V50h-182.12V0h232.12v445.02c0,100.42-81.7,182.12-182.12,182.12Z"/>
  <circle class="cls-1" cx="181.98" cy="167.16" r="25"/>
  <circle class="cls-1" cx="444.69" cy="445.64" r="25"/>
  <path class="cls-1" d="M574.6,627.13h-237.85v-50h187.85v-139.44c0-68.81-55.98-124.79-124.8-124.79h-225c-68.81,0-124.8,55.98-124.8,124.8v14.64c.03,9.17,6.97,53.41,38.54,85.94l-35.88,34.82C9.53,528.67.03,470.89,0,452.37v-14.68C0,341.31,78.41,262.9,174.8,262.9h225c96.38,0,174.8,78.41,174.8,174.79v189.44Z"/>
</svg>